<svg xmlns="http://www.w3.org/2000/svg" viewBox="0 0 500 500"><g id="freepik--background-complete--inject-28"><path d="M164.83,126.74l-21-21a3.45,3.45,0,0,0-4.88,0l-21,21-1.25-1.26,21-21a5.21,5.21,0,0,1,7.38,0l21,21Z" style="fill:#e0e0e0"></path><rect x="63.35" y="119.12" width="156.16" height="98.66" style="fill:#fafafa"></rect><path d="M219.51,121H63.35a1.92,1.92,0,0,1-1.91-1.92h0a1.92,1.92,0,0,1,1.91-1.91H219.51a1.92,1.92,0,0,1,1.92,1.91h0A1.92,1.92,0,0,1,219.51,121Z" style="fill:#ebebeb"></path><path d="M219.51,219.7H63.35a1.92,1.92,0,0,1-1.91-1.91h0a1.92,1.92,0,0,1,1.91-1.92H219.51a1.92,1.92,0,0,1,1.92,1.92h0A1.92,1.92,0,0,1,219.51,219.7Z" style="fill:#ebebeb"></path><path d="M87.43,152.89A1.76,1.76,0,0,1,86.19,154a3.77,3.77,0,0,1-1.72.11c-.34-.1-.62-.67-.62-1.28a1.83,1.83,0,0,1,1.23-1.52,1.47,1.47,0,0,0,.83-1.81c-.23-.76.82-1.72,2.34-2.11a77.8,77.8,0,0,1,9-1.76c1.58-.23,3.21-.92,3.61-1.59s2-1.46,3.67-1.7l1.17-.17c1.63-.23,2.77.44,2.52,1.42a7,7,0,0,1-1.93,3.07c-.81.7-1,1.44-.36,1.65s1.27.15,1.48-.17a6.51,6.51,0,0,1,2.3-1.31,2,2,0,0,1,2.54.57c.33.73.9,1.29,1.27,1.24s.68,1,.68,2.31-1.35,2.33-3,2.28h-.47c-1.63,0-2.86.54-2.74,1.28s-.92,2.26-2.3,3.37l-.14.12c-1.38,1.1-2.5,2.48-2.5,3.1s-.2,1.15-.44,1.16-.74-.39-1.1-.89a2,2,0,0,0-2.18-.31,4.07,4.07,0,0,0-2,1.77,1.08,1.08,0,0,0,.44,1.5,1.45,1.45,0,0,1,.94,1.2,1.39,1.39,0,0,0,1.08,1.14,1.58,1.58,0,0,1,1.17,1.17c0,.48,1.39.88,3,.89h.71c1.63,0,3.33.48,3.78,1a2.89,2.89,0,0,0,1.87,1.06,1,1,0,0,1,1,1c0,.53.77,1.1,1.72,1.28s2.34,1.54,3.09,3.06.78,3.43.07,4.22a4.94,4.94,0,0,0-1,3.5,5.59,5.59,0,0,1-2,4.14c-.76.67-1.13,1-1.89,1.63a7.42,7.42,0,0,0-2.34,4.78c0,1.59.33,3.21.82,3.61a2.07,2.07,0,0,1,.45,2.09c-.25.75-1.26.65-2.24-.21a4,4,0,0,1-1.55-2.93,2.79,2.79,0,0,0-.52-2.13c-.41-.42-.74-2.26-.74-4.09v-3.62c0-1.83-.7-3.87-1.54-4.53a2.58,2.58,0,0,1-1.1-2.5,3.39,3.39,0,0,0-.95-2.84,5.1,5.1,0,0,1-1.39-2.82c0-.73.26-1.39.58-1.46a1.64,1.64,0,0,0,.88-1.08,1.71,1.71,0,0,0-.15-1.44,1,1,0,0,0-1.16,0c-.4.25-.79-.05-.87-.65a1.87,1.87,0,0,0-1.16-1.41c-.56-.17-1-.48-1-.69s-1.17-.68-2.59-1-2.36-1-2.13-1.53-.18-1.5-.92-2.14a5.23,5.23,0,0,1-1.08-3.93c0-.17,0-.25,0-.42.15-1.55.61-2.93,1-3a1.74,1.74,0,0,0,.92-1.46,3.36,3.36,0,0,0-.5-2.09,3,3,0,0,0-2.6-.43C88.44,151.87,87.51,152.44,87.43,152.89Z" style="fill:#e0e0e0"></path><path d="M114.53,146.22a4.33,4.33,0,0,0-2.63-1.55c-.82-.06-1.36-.63-1.2-1.28a4.57,4.57,0,0,0-.37-2.61,7,7,0,0,1-.67-2.36c0-.52,1.29-1.68,2.88-2.56l2.47-1.37a6.13,6.13,0,0,1,5.49-.05l.15.09a6.89,6.89,0,0,1,3,3.8,3.65,3.65,0,0,1-1.75,3.44,9.74,9.74,0,0,0-3.27,3.86c-.62,1.42-1.54,2.45-2,2.31A5.5,5.5,0,0,1,114.53,146.22Z" style="fill:#e0e0e0"></path><path d="M197.45,152.53c1.1-.24,1.77-.78,1.51-1.28s-1.7-1.22-3.22-1.54l-.17,0a6.9,6.9,0,0,1-3.62-1.76,11.77,11.77,0,0,0-3.65-2.68l-1.64-.81a17.23,17.23,0,0,0-5.72-1.54l-.68,0a6.44,6.44,0,0,1-4.44-2.06,8.84,8.84,0,0,0-4.55-2.72c-2-.41-3-.6-4.94-1-1.67-.28-3.59-.12-4.26.35a2.68,2.68,0,0,0-1.21,1.68c0,.46-.72,1-1.6,1.21s-1.71.14-1.84-.18-1.19-.68-2.37-.78l-2.91-.21a17.58,17.58,0,0,1-3.46-1.33,5.67,5.67,0,0,0-4.62-.14,6.8,6.8,0,0,0-2.62,3.44,6.45,6.45,0,0,0-.15,3.55A2.1,2.1,0,0,0,143,146a1.44,1.44,0,0,0,1.39-1,2.11,2.11,0,0,1,1.08-1.32c.46-.21.91.71,1,2a3.64,3.64,0,0,1-2,3.33c-1.18.51-2.26.33-2.38-.41a1.9,1.9,0,0,0-1.24-1.53c-.55-.11-1,.5-1,1.35a2.31,2.31,0,0,1-1.31,2,3.88,3.88,0,0,0-1.85,1.56,2.83,2.83,0,0,0-.15,2c.21.53-.17,1-.85,1s-1.09.92-.92,2,.86,2,1.54,2a1.54,1.54,0,0,0,1.46-1.07,1.34,1.34,0,0,1,1.39-1,3.33,3.33,0,0,0,1.92-.48c.43-.32,1.12-.06,1.55.57a3.13,3.13,0,0,1,.46,2.22c-.17.58.14.79.69.48a2,2,0,0,0,.54-2.21c-.25-.9-.25-1.76,0-1.92s1,.5,1.54,1.45,1.6,1.49,2.23,1.18a1.91,1.91,0,0,1,2.16.8,4,4,0,0,1,.77,2.58c-.13.68-1.38,1.57-2.77,2a6.44,6.44,0,0,1-4,0,4.53,4.53,0,0,1-1.92-2,3.06,3.06,0,0,0-2.62-1.34c-1.19-.05-3.25,1-4.57,2.33L133.77,164a9.57,9.57,0,0,0-2.64,4.6,5.75,5.75,0,0,1-.7,2.56,4.73,4.73,0,0,0-.46,2.46,6.93,6.93,0,0,0,1.85,4,7.42,7.42,0,0,0,4.61,2,8.14,8.14,0,0,1,3.78.79,4.13,4.13,0,0,1,1.08,2.7,3.42,3.42,0,0,0,1.23,2.59c.63.37,1,2.39.8,4.5l-.06.6c-.2,2.11,0,4.52.49,5.36a11.33,11.33,0,0,1,1,4,3.2,3.2,0,0,0,2.24,2.91c1.14.21,3-.79,4.15-2.23a10.14,10.14,0,0,0,2-5.55,7,7,0,0,1,1.38-4.44,8.76,8.76,0,0,0,1.53-5,11.06,11.06,0,0,1,1.53-5.42,5.52,5.52,0,0,0,1.22-3.31,3.19,3.19,0,0,0-2.14-2,2.83,2.83,0,0,1-2-2.13,5.47,5.47,0,0,0-.84-2.54,4.48,4.48,0,0,1-.69-2.56c0-.83.31-1.51.61-1.51s1.12,1,1.84,2.17a8,8,0,0,1,1.22,3.38,1.58,1.58,0,0,0,.61,1.49c.38.14,1.65-.47,2.83-1.36s1.41-2.91.53-4.53-1-3-.23-3.06a1.66,1.66,0,0,1,1.68,1,6.73,6.73,0,0,0,1.89,2.48,15.67,15.67,0,0,0,2.72,1.88,2.52,2.52,0,0,1,1,2.4c-.08,1,.84,2.93,2,4.18s2.64.7,3.21-1.11c.25-.79.37-1.19.62-2,.56-1.8,1.56-3.14,2.21-3s1.55,1.35,2,2.69a10.57,10.57,0,0,0,1.62,3.26c.44.46.77.1.73-.78s.09-1.63.29-1.64a1.36,1.36,0,0,1,.81.51c.24.3,1,.13,1.67-.35s1.2-2.14,1.16-3.71.42-3,1-3.17a2.48,2.48,0,0,0,1.44-1.71,3.58,3.58,0,0,0-.72-2.75,2.59,2.59,0,0,1-.43-2.55c.36-.64.91-1.12,1.22-1.08s1.12-1.09,1.78-2.45c.52-1.07.78-1.59,1.3-2.61.66-1.3,1.51-2.05,1.9-1.72a2.49,2.49,0,0,1,.7,1.7,2.14,2.14,0,0,0,.71,1.59c.38.27,1.07-.22,1.53-1.06A4.88,4.88,0,0,1,197.45,152.53Z" style="fill:#e0e0e0"></path><path d="M159.87,189.06a1.93,1.93,0,0,0-.92-.3c-.21,0-.69.64-1.07,1.39a8.22,8.22,0,0,0-.69,3.14,5.21,5.21,0,0,0,.54,2.48.78.78,0,0,0,1.07.26,10.08,10.08,0,0,0,1.07-3.54C160.16,190.78,160.16,189.24,159.87,189.06Z" style="fill:#e0e0e0"></path><path d="M135.35,149.32a2.91,2.91,0,0,0,1.62-.22,2.68,2.68,0,0,0,.85-2.22c0-1-.28-1.82-.62-1.82s-.72.45-.85,1a1.42,1.42,0,0,1-1,1.08,1.06,1.06,0,0,0-.77,1.07A1.16,1.16,0,0,0,135.35,149.32Z" style="fill:#e0e0e0"></path><path d="M187.19,183.45a1.64,1.64,0,0,1-1-.4c-.2-.21-.91-.19-1.59.06a4.33,4.33,0,0,0-1.88,1.52,8.08,8.08,0,0,1-1.9,1.94,4.05,4.05,0,0,0-1.09,3.21c.08,1.28.67,2.2,1.31,2l2.19-.56a2.75,2.75,0,0,1,1.66.09,5.28,5.28,0,0,0,2.3.23,3.89,3.89,0,0,0,2.57-1.62,6.32,6.32,0,0,0,.92-2.86,8.5,8.5,0,0,0-.92-3.18,5.14,5.14,0,0,0-1.42-1.95c-.28-.07-.5.24-.5.68A.72.72,0,0,1,187.19,183.45Z" style="fill:#e0e0e0"></path><path d="M190.12,158c-.32.15-.41.72-.22,1.26a4.94,4.94,0,0,1-.42,2.83,4.35,4.35,0,0,0-.36,2.73,1.54,1.54,0,0,0,1,.84c.31,0,1-.71,1.48-1.56a6.18,6.18,0,0,0,.63-3.49,4.59,4.59,0,0,0-.91-2.43A1.33,1.33,0,0,0,190.12,158Z" style="fill:#e0e0e0"></path><path d="M193.71,187.88a.67.67,0,0,0-1.05.22c-.24.42-.62,1.14-.85,1.6a16,16,0,0,1-1.77,2.39c-.74.85-1.22,1.85-1.06,2.19s.8.42,1.42.18a3.68,3.68,0,0,0,1.62-2.19,9,9,0,0,1,1.41-2.8C193.93,188.88,194.05,188.17,193.71,187.88Z" style="fill:#e0e0e0"></path><rect x="65.34" y="264.15" width="21.32" height="118.09" transform="translate(151.99 646.38) rotate(180)" style="fill:#e6e6e6"></rect><rect x="80.84" y="264.15" width="231" height="118.09" transform="translate(392.67 646.38) rotate(180)" style="fill:#f5f5f5"></rect><polygon points="80.84 288.74 311.84 288.74 311.84 290.74 255.09 290.74 255.09 382.24 253.09 382.24 253.09 290.74 197.88 290.74 197.88 382.24 195.88 382.24 195.88 290.74 140.68 290.74 140.68 382.24 138.68 382.24 138.68 290.74 80.84 290.74 80.84 288.74" style="fill:#e0e0e0"></polygon><path d="M260.84,341.24h0a2,2,0,0,0,2-2v-9a2,2,0,0,0-2-2h0a2,2,0,0,0-2,2v9A2,2,0,0,0,260.84,341.24Z" style="fill:#e6e6e6"></path><path d="M247.34,341.24h0a2,2,0,0,0,2-2v-9a2,2,0,0,0-2-2h0a2,2,0,0,0-2,2v9A2,2,0,0,0,247.34,341.24Z" style="fill:#e6e6e6"></path><path d="M146.43,341.24h0a2,2,0,0,0,2-2v-9a2,2,0,0,0-2-2h0a2,2,0,0,0-2,2v9A2,2,0,0,0,146.43,341.24Z" style="fill:#e6e6e6"></path><path d="M132.93,341.24h0a2,2,0,0,0,2-2v-9a2,2,0,0,0-2-2h0a2,2,0,0,0-2,2v9A2,2,0,0,0,132.93,341.24Z" style="fill:#e6e6e6"></path><rect x="60.34" y="261.56" width="26.5" height="5.17" transform="translate(147.17 528.3) rotate(180)" style="fill:#e0e0e0"></rect><rect x="78.84" y="261.56" width="238" height="5.17" transform="translate(395.67 528.3) rotate(180)" style="fill:#ebebeb"></rect><rect x="416.78" y="398.49" width="33.12" height="0.25" style="fill:#ebebeb"></rect><rect x="322.53" y="401.21" width="8.69" height="0.25" style="fill:#ebebeb"></rect><rect x="396.59" y="389.21" width="19.19" height="0.25" style="fill:#ebebeb"></rect><rect x="52.46" y="390.89" width="43.19" height="0.25" style="fill:#ebebeb"></rect><rect x="104.56" y="390.89" width="6.33" height="0.25" style="fill:#ebebeb"></rect><rect x="131.47" y="395.11" width="93.68" height="0.25" style="fill:#ebebeb"></rect><path d="M237,337.8H43.92a5.71,5.71,0,0,1-5.71-5.71V60.66A5.71,5.71,0,0,1,43.92,55H237a5.71,5.71,0,0,1,5.71,5.71V332.09A5.71,5.71,0,0,1,237,337.8ZM43.92,55.2a5.47,5.47,0,0,0-5.46,5.46V332.09a5.47,5.47,0,0,0,5.46,5.46H237a5.47,5.47,0,0,0,5.46-5.46V60.66A5.47,5.47,0,0,0,237,55.2Z" style="fill:#ebebeb"></path><path d="M453.31,337.8H260.21a5.72,5.72,0,0,1-5.71-5.71V60.66A5.72,5.72,0,0,1,260.21,55h193.1A5.71,5.71,0,0,1,459,60.66V332.09A5.71,5.71,0,0,1,453.31,337.8ZM260.21,55.2a5.47,5.47,0,0,0-5.46,5.46V332.09a5.47,5.47,0,0,0,5.46,5.46h193.1a5.47,5.47,0,0,0,5.46-5.46V60.66a5.47,5.47,0,0,0-5.46-5.46Z" style="fill:#ebebeb"></path><rect y="382.4" width="500" height="0.25" style="fill:#ebebeb"></rect><path d="M409.73,258.27l-15.28-4.72a1,1,0,0,1,.35-1.94l17.61.93c-4.16-7.23-6.62-11.75-9.42-17.41a1,1,0,0,1,1.63-1.1c3.76,4.22,6.91,7.66,11.95,13.07,1.21-7,2.6-13.45,4.34-19.93a1,1,0,0,1,1.95.34,142.85,142.85,0,0,0-.51,15.69l.48.17q6.36-7.25,13.31-13.91a1,1,0,0,1,1.46,1.34,183.07,183.07,0,0,0-12.44,17.85q9.07-3.42,18.23-6.63a1,1,0,0,1,.82,1.8c-6.33,3.59-12.59,7.26-18.84,11.06l16.1,5.13a1,1,0,0,1-.36,1.94l-16.55-1c3.27,3.83,5.55,6.46,8.19,9.43a1,1,0,0,1-1.29,1.49c-3.32-2.21-6.25-4.17-10.51-7,.43,3.4.81,6,1.26,8.62a1,1,0,0,1-1.91.53c-1.1-2.83-2.11-5.65-3.4-9.38-4.81,23-3.56,45.33,1.09,68.21l-5.77-1.05a179.24,179.24,0,0,1,2.71-67.52c-2.89,3-5,5.24-7,7.5a1,1,0,0,1-1.59-1.17c1.36-2.26,2.84-4.55,4.81-7.52-5.15,1.13-8.67,1.91-12.56,2.79a1,1,0,0,1-.66-1.86C401.51,262.19,404.84,260.59,409.73,258.27Z" style="fill:#ebebeb"></path><path d="M401.6,266.22,413.34,260a1.33,1.33,0,0,0-.94-2.47l-14.5,3.56c2.37-6.8,3.86-11.38,5.31-16.42a1.33,1.33,0,0,0-2.41-1c-2.39,3.95-4.66,7.6-8,12.91-2-5.42-4.11-10.45-6.39-15.39a1.32,1.32,0,0,0-2.48.89c1,3.92,1.82,7.87,2.46,11.74L386,254q-5.68-4.46-11.66-8.51a1.33,1.33,0,0,0-1.65,2.07q6.28,5.74,12,12.06-7.71-1.33-15.44-2.55a1.33,1.33,0,0,0-.63,2.57q8.54,3,17,6.14l-12.49,6.76a1.33,1.33,0,0,0,1,2.46l13.45-3.41c-1.94,3.41-3.43,6-5,8.58a1.33,1.33,0,0,0,2.08,1.63c2.17-2.12,4.32-4.25,7.17-7.06.13,2,.22,3.78.28,5.42a1.33,1.33,0,0,0,2.64.16c.33-2,.66-4.07,1-6.56,9,21.71,12,43.86,11.66,67.21l5.46-2.1a178.93,178.93,0,0,0-15.25-65.83c2.07,1.46,3.81,2.7,5.4,3.87a1.33,1.33,0,0,0,1.76-2c-1.08-1.15-2.27-2.37-3.64-3.77,4,.11,7.06.2,10.05.3a1.33,1.33,0,0,0,.39-2.62C408.64,268.06,405.61,267.26,401.6,266.22Z" style="fill:#f0f0f0"></path><path d="M422.33,278.84l-8.75-4.65a.94.94,0,0,1,.66-1.74L425,275.09c-1.75-5-2.85-8.41-3.93-12.17a.94.94,0,0,1,1.71-.75c1.78,2.95,3.45,5.65,5.94,9.6,1.51-4,3.07-7.8,4.78-11.49a.94.94,0,0,1,1.76.63c-.76,3-1.4,6-1.88,8.91l.28.16q4.32-3.37,8.87-6.45a.94.94,0,0,1,1.16,1.48q-4.73,4.29-9,9,5.78-1,11.56-1.91a.94.94,0,0,1,.45,1.82c-4.25,1.47-8.47,3-12.71,4.57l9.3,5a.94.94,0,0,1-.68,1.74l-10-2.54c1.46,2.57,2.57,4.49,3.73,6.44a.94.94,0,0,1-1.47,1.15l-5.38-5.29c-.1,1.58-.17,2.95-.22,4.22a.94.94,0,0,1-1.86.12c-.26-1.52-.51-3.13-.79-5.06-6.57,15.83-8.72,32-8.5,49l-4-1.52a130.34,130.34,0,0,1,11.12-48c-1.62,1.14-3,2.1-4.19,3a.94.94,0,0,1-1.25-1.4c.85-.9,1.78-1.86,2.87-3l-7.56.23a.94.94,0,0,1-.28-1.85C417.05,280.22,419.31,279.62,422.33,278.84Z" style="fill:#f5f5f5"></path><path d="M397.64,383.37h29.83a3.93,3.93,0,0,0,3.93-3.7l3.16-51.44c.14-2.27-44.16-2.27-44,0l3.16,51.44A4,4,0,0,0,397.64,383.37Z" style="fill:#e0e0e0"></path><path d="M395.83,264.52a3,3,0,0,1-1.07-2.67l.67-5.7-1.53,2.65a3,3,0,0,1-4.43.9l-3-2.26,2.74,4.41a3,3,0,0,1-.6,3.88l-3.54,3,3.47-.79a3,3,0,0,1,3.53,2l1.19,3.64.77-3.87a3,3,0,0,1,3.8-2.31l2.33.68Z" style="fill:#e6e6e6"></path><path d="M415.72,254.7a2.19,2.19,0,0,0,.79-1.95l-.49-4.17,1.12,1.94a2.2,2.2,0,0,0,3.23.66l2.18-1.65-2,3.22a2.18,2.18,0,0,0,.44,2.83l2.58,2.22-2.53-.58a2.22,2.22,0,0,0-2.59,1.46l-.87,2.66-.55-2.83a2.21,2.21,0,0,0-2.79-1.69l-1.7.5Z" style="fill:#f5f5f5"></path><path d="M427.51,278.56a1.56,1.56,0,0,0,.57-1.4l-.36-3,.81,1.39a1.58,1.58,0,0,0,2.32.48l1.56-1.19L431,277.17a1.57,1.57,0,0,0,.32,2l1.85,1.58-1.82-.41a1.58,1.58,0,0,0-1.85,1.05l-.63,1.91-.4-2a1.57,1.57,0,0,0-2-1.21l-1.22.36Z" style="fill:#e6e6e6"></path></g><g id="freepik--Shadow--inject-28"><ellipse id="freepik--path--inject-28" cx="245.18" cy="412.39" rx="193.89" ry="11.32" style="fill:#f5f5f5"></ellipse></g><g id="freepik--Poster--inject-28"><rect x="314.33" y="127.66" width="61.03" height="90.29" style="fill:#FFC100"></rect><rect x="314.33" y="127.66" width="61.03" height="90.29" style="fill:#fff;opacity:0.8"></rect><path d="M375.37,129.41h-61a1.76,1.76,0,0,1-1.75-1.75h0a1.76,1.76,0,0,1,1.75-1.76h61a1.76,1.76,0,0,1,1.75,1.76h0A1.76,1.76,0,0,1,375.37,129.41Z" style="fill:#FFC100"></path><path d="M375.37,219.7h-61a1.75,1.75,0,0,1-1.75-1.75h0a1.75,1.75,0,0,1,1.75-1.75h61a1.75,1.75,0,0,1,1.75,1.75h0A1.75,1.75,0,0,1,375.37,219.7Z" style="fill:#FFC100"></path><g style="opacity:0.5"><path d="M375.37,129.41h-61a1.76,1.76,0,0,1-1.75-1.75h0a1.76,1.76,0,0,1,1.75-1.76h61a1.76,1.76,0,0,1,1.75,1.76h0A1.76,1.76,0,0,1,375.37,129.41Z" style="fill:#fff"></path><path d="M375.37,219.7h-61a1.75,1.75,0,0,1-1.75-1.75h0a1.75,1.75,0,0,1,1.75-1.75h61a1.75,1.75,0,0,1,1.75,1.75h0A1.75,1.75,0,0,1,375.37,219.7Z" style="fill:#fff"></path></g><path d="M329.79,176.36h0a1.86,1.86,0,0,0,1.43-.71l6.43-8.67a1.86,1.86,0,0,0-1.44-3h-3.41a12.66,12.66,0,0,1,12.56-11.29c4.47,0,7.23,1.46,10.58,5.59a3.81,3.81,0,0,0,5.61.79,3.75,3.75,0,0,0,1.05-5.07,20.62,20.62,0,0,0-37.72,10h-2.48A1.86,1.86,0,0,0,321,167l7.37,8.7A1.87,1.87,0,0,0,329.79,176.36Z" style="fill:#FFC100"></path><path d="M329.79,176.36h0a1.86,1.86,0,0,0,1.43-.71l6.43-8.67a1.86,1.86,0,0,0-1.44-3h-3.41a12.66,12.66,0,0,1,12.56-11.29c4.47,0,7.23,1.46,10.58,5.59a3.81,3.81,0,0,0,5.61.79,3.75,3.75,0,0,0,1.05-5.07,20.62,20.62,0,0,0-37.72,10h-2.48A1.86,1.86,0,0,0,321,167l7.37,8.7A1.87,1.87,0,0,0,329.79,176.36Z" style="fill:#fff;opacity:0.5"></path><path d="M371.16,174l-7.37-8.69a1.88,1.88,0,0,0-1.43-.64h0a1.86,1.86,0,0,0-1.43.71l-6.43,8.67a1.86,1.86,0,0,0,1.44,3h3.41a12.66,12.66,0,0,1-12.56,11.29c-4.46,0-7.23-1.46-10.58-5.59a3.81,3.81,0,0,0-5.61-.79,3.75,3.75,0,0,0-1.05,5.07,20.62,20.62,0,0,0,37.72-10h2.48a1.87,1.87,0,0,0,1.41-3.08Z" style="fill:#FFC100"></path><path d="M371.16,174l-7.37-8.69a1.88,1.88,0,0,0-1.43-.64h0a1.86,1.86,0,0,0-1.43.71l-6.43,8.67a1.86,1.86,0,0,0,1.44,3h3.41a12.66,12.66,0,0,1-12.56,11.29c-4.46,0-7.23-1.46-10.58-5.59a3.81,3.81,0,0,0-5.61-.79,3.75,3.75,0,0,0-1.05,5.07,20.62,20.62,0,0,0,37.72-10h2.48a1.87,1.87,0,0,0,1.41-3.08Z" style="fill:#fff;opacity:0.5"></path><path d="M352,160.57s-13.6.39-11.69,15.79l-1.17,1.38a1.19,1.19,0,1,0,2,1.27l.74-1.58a6.86,6.86,0,0,0,8.42-3.37C353.5,168.62,352,160.57,352,160.57Zm-10.13,15.22s-.58-12.29,9.2-14.06C351.08,161.73,344.14,165.45,341.88,175.79Z" style="fill:#FFC100"></path><path d="M352,160.57s-13.6.39-11.69,15.79l-1.17,1.38a1.19,1.19,0,1,0,2,1.27l.74-1.58a6.86,6.86,0,0,0,8.42-3.37C353.5,168.62,352,160.57,352,160.57Zm-10.13,15.22s-.58-12.29,9.2-14.06C351.08,161.73,344.14,165.45,341.88,175.79Z" style="fill:#fff;opacity:0.5"></path></g><g id="freepik--character-3--inject-28"><polygon points="347.39 413.44 341.12 413.44 345.96 367.38 352.23 367.38 347.39 413.44" style="fill:#FFC100"></polygon><polygon points="347.39 413.44 341.12 413.44 345.96 367.38 352.23 367.38 347.39 413.44" style="fill:#fff;opacity:0.4"></polygon><polygon points="347.39 413.44 344.25 413.44 349.1 367.38 352.23 367.38 347.39 413.44" style="fill:#fff;opacity:0.5"></polygon><polygon points="376.95 413.44 370.67 413.44 375.51 367.38 381.79 367.38 376.95 413.44" style="fill:#FFC100"></polygon><polygon points="376.95 413.44 370.67 413.44 375.51 367.38 381.79 367.38 376.95 413.44" style="fill:#fff;opacity:0.4"></polygon><polygon points="376.95 413.44 373.81 413.44 378.65 367.38 381.79 367.38 376.95 413.44" style="fill:#fff;opacity:0.5"></polygon><polygon points="418.73 413.44 425.01 413.44 420.16 367.38 413.89 367.38 418.73 413.44" style="fill:#FFC100"></polygon><polygon points="418.73 413.44 425.01 413.44 420.16 367.38 413.89 367.38 418.73 413.44" style="fill:#fff;opacity:0.4"></polygon><polygon points="418.73 413.44 421.87 413.44 417.03 367.38 413.89 367.38 418.73 413.44" style="fill:#fff;opacity:0.5"></polygon><polygon points="389.18 413.44 395.45 413.44 390.61 367.38 384.33 367.38 389.18 413.44" style="fill:#FFC100"></polygon><polygon points="389.18 413.44 395.45 413.44 390.61 367.38 384.33 367.38 389.18 413.44" style="fill:#fff;opacity:0.4"></polygon><polygon points="389.18 413.44 392.31 413.44 387.47 367.38 384.33 367.38 389.18 413.44" style="fill:#fff;opacity:0.5"></polygon><path d="M427.35,316.81H385.83a2.47,2.47,0,0,0-2.41,1.92L373.83,360H342.69a4.69,4.69,0,1,0,0,9.38h79.86l7.25-49.76A2.48,2.48,0,0,0,427.35,316.81Z" style="fill:#FFC100"></path><path d="M427.35,316.81H385.83a2.47,2.47,0,0,0-2.41,1.92L373.83,360H342.69a4.69,4.69,0,1,0,0,9.38h79.86l7.25-49.76A2.48,2.48,0,0,0,427.35,316.81Z" style="fill:#fff;opacity:0.5"></path><path d="M424.93,318.73,415.35,360H384.2a4.69,4.69,0,0,0-4.69,4.69h0a4.69,4.69,0,0,0,4.69,4.69h38.35l7.25-49.76a2.48,2.48,0,0,0-2.45-2.84h0A2.48,2.48,0,0,0,424.93,318.73Z" style="fill:#FFC100"></path><path d="M424.93,318.73,415.35,360H384.2a4.69,4.69,0,0,0-4.69,4.69h0a4.69,4.69,0,0,0,4.69,4.69h38.35l7.25-49.76a2.48,2.48,0,0,0-2.45-2.84h0A2.48,2.48,0,0,0,424.93,318.73Z" style="fill:#fff;opacity:0.30000000000000004"></path><path d="M370,302.33l-1.73,7.46-14,2.6s-5.35-1.23-7-.59c-1.35.53-3.9,2.85-3.92,4.3,0,.6,1.05,1.53,1.58,1.82a9.74,9.74,0,0,0,4.51.66c1.31-.19,4.81-2.19,4.81-2.19s16.28,2.08,18.63-.52,7-10.7,7-10.7Z" style="fill:#eec1bb"></path><path d="M378.52,286.09c5-.27,8.66,7.94,1.54,21.21a21.06,21.06,0,0,0-11.74-3.42S371.87,286.46,378.52,286.09Z" style="fill:#263238"></path><path d="M350.27,342.27s-11.29.28-11.95,6.35c-1.21,11.26,5.83,59.25,5.83,59.25l7,.27s5.7-41.84,2.61-50.87l4.44-.29Z" style="fill:#eec1bb"></path><path d="M369,334.55s1,5-9.48,5.33-15.3,2.78-15.3,2.78,9-.84,10.69,15.62c0,0,27.6,4.38,37.95-1.16S398,335.18,398,335.18Z" style="fill:#263238"></path><path d="M369,334.55s1,5-9.48,5.33-15.3,2.78-15.3,2.78,9-.84,10.69,15.62c0,0,27.6,4.38,37.95-1.16S398,335.18,398,335.18Z" style="opacity:0.5"></path><path d="M362.9,347.78s-5.38-.31-5.11,4.79,6.26,56,6.26,56h7.14s6.43-42.62,1.57-47.64l4.36.22S368,348.61,362.9,347.78Z" style="fill:#eec1bb"></path><path d="M360.42,347.68s8.46,1.16,13.67,13.67c0,0,25.63,3.49,31.46-4.81,5.18-7.38,3.06-21.71,3.06-21.71l-30.72,1S380.25,343,360.42,347.68Z" style="fill:#263238"></path><path d="M367.77,334.83s14.8,6.62,42.1,1.27c0,0-.78-15.69,0-32.44s-5.61-22.9-24.28-20.94C362.66,285.13,374.09,322.31,367.77,334.83Z" style="fill:#FFC100"></path><path d="M405.79,303.05s-3.43,16.24-10.21,14.55-17.08-7.37-17.08-7.37l-5.59-3.45a1.75,1.75,0,0,1-.83-1.58l.19-3.74a1.77,1.77,0,0,1,.55-1.18l.73-.69a1.75,1.75,0,0,1,2.7.37l4.23,7.1,14.31,2.44.25-8Z" style="fill:#eec1bb"></path><path d="M400.49,284.47c4.82-1.3,10.11,6,5.86,20.44a21,21,0,0,0-12.18-.94S394.06,286.19,400.49,284.47Z" style="fill:#263238"></path><path d="M364.31,403.72l7.35.11a.71.71,0,0,1,.66.58l1.36,7.36a1.24,1.24,0,0,1-.89,1.44,1,1,0,0,1-.24,0c-3.06-.1-5.78-.31-9.59-.35-4.5-.06-3.37.53-8.66.54-3.19,0-3.68-3.85-2.32-4,6.2-.75,8-2.74,10.47-5.06A2.67,2.67,0,0,1,364.31,403.72Z" style="fill:#263238"></path><path d="M344,403.72l7.35.11a.71.71,0,0,1,.66.58l1.36,7.36a1.24,1.24,0,0,1-.89,1.44,1,1,0,0,1-.24,0c-3.06-.1-5.78-.31-9.59-.35-4.5-.06-3.37.53-8.66.54-3.18,0-3.68-3.85-2.32-4,6.2-.75,8-2.74,10.47-5.06A2.67,2.67,0,0,1,344,403.72Z" style="fill:#263238"></path><path d="M396.91,273.13s-2.87,8,.35,9.66c0,0-5.23,4.27-10.51,3.3-4.63-.85-.27-3.45-.27-3.45s1.8-.83,1.69-3.94S396.91,273.13,396.91,273.13Z" style="fill:#eec1bb"></path><path d="M395.14,277.59c1.57-2.52,1-3.53-.19-3.83-2.6.93-6.85,2.78-6.78,4.94.09,2.48-1,3.5-1.49,3.82A10.06,10.06,0,0,0,395.14,277.59Z" style="opacity:0.1"></path><path d="M399.68,263.63c-1.24,7.33-1.59,11.68-5.72,15.06-6.21,5.11-15,.74-15.93-6.79-.88-6.84,1.3-17.65,8.83-19.81a10.14,10.14,0,0,1,12.82,11.54Z" style="fill:#eec1bb"></path><path d="M387.91,264.53c-.07.6-.44,1.06-.83,1s-.66-.56-.59-1.16.43-1.05.83-1S388,263.93,387.91,264.53Z" style="fill:#2e353a"></path><path d="M381.12,263.81c-.07.6-.43,1.05-.83,1s-.65-.57-.59-1.16.43-1.06.83-1S381.19,263.21,381.12,263.81Z" style="fill:#2e353a"></path><path d="M383.62,264.31a21.78,21.78,0,0,1-3.43,4.82A3.51,3.51,0,0,0,383,270Z" style="fill:#ed893e"></path><path d="M390.54,262a.37.37,0,0,0,.18,0,.36.36,0,0,0,.12-.48,3.57,3.57,0,0,0-2.71-1.77.36.36,0,0,0,0,.72h0a2.8,2.8,0,0,1,2.13,1.41A.34.34,0,0,0,390.54,262Z" style="fill:#2e353a"></path><path d="M378.77,260.79a.36.36,0,0,0,.3-.17,2.8,2.8,0,0,1,2.13-1.38.36.36,0,0,0,.35-.36.36.36,0,0,0-.36-.35,3.56,3.56,0,0,0-2.75,1.72.35.35,0,0,0,.1.48h0A.3.3,0,0,0,378.77,260.79Z" style="fill:#2e353a"></path><path d="M385.55,273.38a6,6,0,0,1-.82.17.17.17,0,0,1-.19-.14h0a.17.17,0,0,1,.15-.18A4.49,4.49,0,0,0,388.1,271a.17.17,0,0,1,.23-.07.16.16,0,0,1,.07.22A4.61,4.61,0,0,1,385.55,273.38Z" style="fill:#263238"></path><path d="M397.08,269s-1.75-1.54-1.2-5.25-5.06-4.79-5-8.79-11.49,1.56-11-3.89,9.33-1,13.16-1.26,11.33-.92,10.3,7.82c0,0,3.24,3.94-2.87,11.37Z" style="fill:#263238"></path><path d="M402.55,270.89a7.09,7.09,0,0,1-4.71,2.64c-2.46.26-3.29-2-2.27-4.15.91-1.9,3.3-4.33,5.61-3.63S404,269.07,402.55,270.89Z" style="fill:#eec1bb"></path><path d="M402.43,258.53s6.12-2.79,4.48-4.86S404.73,256.39,402.43,258.53Z" style="fill:#263238"></path></g><g id="freepik--table-2--inject-28"><path d="M317.53,413.75H267a8.12,8.12,0,0,1-8.11-8.11v-76.4h66.74v76.4A8.12,8.12,0,0,1,317.53,413.75Zm-55.13-81v72.9a4.62,4.62,0,0,0,4.62,4.61h50.51a4.62,4.62,0,0,0,4.62-4.61v-72.9Z" style="fill:#FFC100"></path><g style="opacity:0.4"><path d="M317.53,413.75H267a8.12,8.12,0,0,1-8.11-8.11v-76.4h66.74v76.4A8.12,8.12,0,0,1,317.53,413.75Zm-55.13-81v72.9a4.62,4.62,0,0,0,4.62,4.61h50.51a4.62,4.62,0,0,0,4.62-4.61v-72.9Z" style="fill:#fff"></path></g><path d="M362.61,413.75H312.1a8.12,8.12,0,0,1-8.11-8.11v-76.4h66.73v76.4A8.12,8.12,0,0,1,362.61,413.75Zm-55.13-81v72.9a4.62,4.62,0,0,0,4.62,4.61h50.51a4.62,4.62,0,0,0,4.62-4.61v-72.9Z" style="fill:#FFC100"></path><g style="opacity:0.6000000000000001"><path d="M362.61,413.75H312.1a8.12,8.12,0,0,1-8.11-8.11v-76.4h66.73v76.4A8.12,8.12,0,0,1,362.61,413.75Zm-55.13-81v72.9a4.62,4.62,0,0,0,4.62,4.61h50.51a4.62,4.62,0,0,0,4.62-4.61v-72.9Z" style="fill:#fff"></path></g><rect x="255.67" y="324.16" width="45.08" height="9.04" style="fill:#FFC100"></rect><rect x="300.74" y="324.16" width="73.22" height="9.04" style="fill:#FFC100"></rect><rect x="300.74" y="324.16" width="73.22" height="9.04" style="fill:#fff;opacity:0.1"></rect><rect x="250.67" y="320.5" width="50.07" height="4.8" style="fill:#FFC100"></rect><rect x="250.67" y="320.5" width="50.07" height="4.8" style="fill:#fff;opacity:0.1"></rect><rect x="300.74" y="320.5" width="78.21" height="4.8" style="fill:#FFC100"></rect><rect x="300.74" y="320.5" width="78.21" height="4.8" style="fill:#fff;opacity:0.30000000000000004"></rect><polygon points="345.43 318.68 340.68 318.68 342.58 280.84 344.48 280.84 345.43 318.68" style="fill:#263238"></polygon><polygon points="345.43 318.68 340.68 318.68 342.58 280.84 344.48 280.84 345.43 318.68" style="fill:#fff;opacity:0.5"></polygon><path d="M346.38,280.63c0,1-1.14,1.87-2.55,1.87s-2.56-.84-2.56-1.87,1.15-1.87,2.56-1.87S346.38,279.6,346.38,280.63Z" style="fill:#263238"></path><path d="M346.38,280.63c0,1-1.14,1.87-2.55,1.87s-2.56-.84-2.56-1.87,1.15-1.87,2.56-1.87S346.38,279.6,346.38,280.63Z" style="fill:#fff;opacity:0.6000000000000001"></path><path d="M349.35,320.5H336.42a1.82,1.82,0,0,1,1.83-1.82h9.27a1.82,1.82,0,0,1,1.83,1.82Z" style="fill:#263238"></path><path d="M349.35,320.5H336.42a1.82,1.82,0,0,1,1.83-1.82h9.27a1.82,1.82,0,0,1,1.83,1.82Z" style="fill:#fff;opacity:0.30000000000000004"></path><path d="M325.8,281.76l18.36-1.07-15.55-1.44a2.57,2.57,0,0,0-2.81,2.51Z" style="fill:#263238"></path><path d="M355.29,297.45l-10-16.08,6.64,15a2.4,2.4,0,0,0,3.4,1.1Z" style="fill:#263238"></path><path d="M345.27,280.05l9.09-13.51a2.6,2.6,0,0,0-.77-3.65h0Z" style="fill:#263238"></path><g style="opacity:0.7000000000000001"><path d="M325.8,281.76l18.36-1.07-15.55-1.44a2.57,2.57,0,0,0-2.81,2.51Z" style="fill:#fff"></path><path d="M355.29,297.45l-10-16.08,6.64,15a2.4,2.4,0,0,0,3.4,1.1Z" style="fill:#fff"></path><path d="M345.27,280.05l9.09-13.51a2.6,2.6,0,0,0-.77-3.65h0Z" style="fill:#fff"></path></g><path d="M346.46,280.7a1.25,1.25,0,1,1-1.25-1.25A1.25,1.25,0,0,1,346.46,280.7Z" style="fill:#263238"></path><path d="M346.46,280.7a1.25,1.25,0,1,1-1.25-1.25A1.25,1.25,0,0,1,346.46,280.7Z" style="fill:#fff;opacity:0.8"></path><g style="opacity:0.1"><path d="M337.44,298l7.48-16.8-8.42,13.16a2.56,2.56,0,0,0,.94,3.64Z"></path><path d="M364.91,279,346,280.53l16.35,1a2.4,2.4,0,0,0,2.54-2.52Z"></path><path d="M344.85,279.91,337,265.63a2.6,2.6,0,0,0-3.59-1h0Z"></path></g></g><g id="freepik--character-2--inject-28"><path d="M272.32,186.15s18.06,8.62,21.42,4.16-11-22.25-11-22.25l-7.95-8s-9.24-2.14-9.09-.79,6,2.7,6,2.7-5.14,6.14,7,8.61l2.71,7.35-6.6-3.78A12.41,12.41,0,0,0,272.32,186.15Z" style="fill:#b55b52"></path><polygon points="276.04 174.85 275.37 175.46 283.09 183.62 281.36 177.9 276.04 174.85" style="opacity:0.1"></polygon><path d="M260.1,166.19s3.14.55,17.69,9a22.54,22.54,0,0,0-4,13.35S252.56,180.19,260.1,166.19Z" style="fill:#FFC100"></path><path d="M269.79,183.09c-.42-4.16-3.17-8.54-3.17-8.54h-.95l-.84,1.89.36,7.05a36.4,36.4,0,0,0,5.85,3.74C270.72,187,270.09,186.12,269.79,183.09Z" style="opacity:0.1"></path><path d="M237.53,127.26s3.68-5.53,0-4.46c0,0-1.48-5.7-4-2.37,0,0-3.33-5.35-5.11-1,0,0-4.22-3.18-4.34,2.23,0,0-5.28-1.37-2.73,4,0,0-5.7,2.26.06,4.93,0,0-3.92,4.16,1.78,4,0,0-1.66,4,2.68,2.49,0,0-.45,3.43,3.15.89,0,0,2.27,3.53,3.45-1.71Z" style="fill:#263238"></path><path d="M233.84,139.35s-4-4.33-1.74-9.4,8.39-3.17,8.39-3.17S235,129.67,233.84,139.35Z" style="fill:#FFC100"></path><polygon points="256.34 383.26 261.09 404.98 269.49 404.45 270.02 382.36 256.34 383.26" style="fill:#b55b52"></polygon><path d="M257.43,394.8s-10.64-48.92-11.85-87.36c0,0-8.18-49.33-5.45-75.67h26.33s5.15,26,6.36,77.49-2.12,85.29-2.12,85.29Z" style="fill:#263238"></path><path d="M242.87,259l-2.3,7.25c1.71,21.27,5,41.18,5,41.18,0,1.72.12,3.45.21,5.18,8-33.81,2.21-55.42,2.21-55.42Z" style="opacity:0.4"></path><path d="M269.59,402.66l-9.47.2a.87.87,0,0,0-.84.71l-1.82,8.93a1.47,1.47,0,0,0,1.13,1.74,1.63,1.63,0,0,0,.31,0c3.94-.14,7.44-.42,12.35-.5,5.8-.11,4.34.61,11.15.58,4.11,0,4.77-4.69,3-4.89-8-.86-10.32-3.25-13.45-6A3.51,3.51,0,0,0,269.59,402.66Z" style="fill:#263238"></path><polygon points="212.53 382.35 213.65 404.06 221.75 404.74 225.65 382.65 212.53 382.35" style="fill:#b55b52"></polygon><path d="M225.3,391.59s10.59-44.19,14.83-71.74,11.2-88.08,11.2-88.08l-31.18-2.42-3.93,14.83c-2.73,7.27-1.82,19-2,30.83-.28,19.71.76,39.7.76,39.7-7.52,22.26-3.32,74.15-3.32,74.15Z" style="fill:#263238"></path><path d="M222.08,399.3,213,396.79a.88.88,0,0,0-1,.43l-4.29,8a1.45,1.45,0,0,0,.59,2,1.39,1.39,0,0,0,.28.12c3.82,1,7.26,1.72,12,3,5.58,1.56,4,1.83,10.51,3.75,3.94,1.15,5.92-3.14,4.3-3.83-7.4-3.1-9-6.06-11.16-9.63A3.58,3.58,0,0,0,222.08,399.3Z" style="fill:#263238"></path><path d="M269.79,249.73s-5-36.26-2.83-50.36c.77-4.9,2.33-10.21.28-19.86-.79-3.69.33-10.49-7.14-13.32s-32.48-3.63-39.55,2.83c0,0,1.21,30.47-.21,47.18-1.12,13.14-7.25,32.32-7.25,32.32l35,4.06,5.26-9,2.82,9.19Z" style="fill:#FFC100"></path><path d="M252.6,164.62c-.89-.11-1.82-.2-2.78-.27a1.7,1.7,0,0,1-1.1-.54c-1.69-1.79-1.12-4.17-.16-6.43l-9.89-7.82c.57,4.05.78,11.12-2.44,14.33a1.94,1.94,0,0,1-1.18.55l-1.14.12,8.08,7.51,4,3.15,5,4.09,1.72-3.79,1-6.25v-2.88Z" style="fill:#b55b52"></path><path d="M242.46,152.77a9.18,9.18,0,0,0-.8,3.36c0,2.4,3.51,4.71,6,5.32a7.76,7.76,0,0,1,.6-3.31Z" style="opacity:0.2;isolation:isolate"></path><path d="M237.22,139.28c.13,8,0,11.35,3.84,15.62,5.76,6.41,15.52,4.51,17.78-3.33,2-7.07,1.49-18.91-6.14-22.43a10.87,10.87,0,0,0-14.46,5.24A11,11,0,0,0,237.22,139.28Z" style="fill:#b55b52"></path><path d="M253.91,143.82a17.3,17.3,0,0,0,1.63,4.46,2.8,2.8,0,0,1-2.35.07Z" style="fill:#a02724"></path><path d="M248.83,139a.3.3,0,0,1-.13-.09.32.32,0,0,1,.05-.45h0a3.68,3.68,0,0,1,3.33-.75.32.32,0,0,1-.2.6,3.07,3.07,0,0,0-2.74.65A.34.34,0,0,1,248.83,139Z" style="fill:#263238"></path><path d="M259.83,140.27a.3.3,0,0,1-.13-.09,3.08,3.08,0,0,0-2.57-1.14.31.31,0,0,1-.35-.27h0a.33.33,0,0,1,.29-.36,3.71,3.71,0,0,1,3.12,1.36.31.31,0,0,1,0,.44.31.31,0,0,1-.34.06Z" style="fill:#263238"></path><path d="M249.56,142.05c-.1.63.16,1.2.58,1.28s.84-.4.93-1.05-.15-1.2-.57-1.27S249.67,141.4,249.56,142.05Z" style="fill:#263238"></path><path d="M256.8,143.2c-.11.64.15,1.21.56,1.28s.84-.39.95-1-.16-1.21-.57-1.27S256.89,142.56,256.8,143.2Z" style="fill:#263238"></path><path d="M257.55,142.17l1.6-.19S258.17,143.05,257.55,142.17Z" style="fill:#263238"></path><path d="M250.32,141l1.6-.19S250.94,141.89,250.32,141Z" style="fill:#263238"></path><path d="M252,151.59a6.39,6.39,0,0,0,1.06.29.19.19,0,0,0,.22-.16h0a.19.19,0,0,0-.15-.22,5.19,5.19,0,0,1-3.78-2.73.19.19,0,1,0-.35.15A5.36,5.36,0,0,0,252,151.59Z" style="fill:#263238"></path><polygon points="211.34 390.11 225.5 393.14 226.51 388.6 210.66 385.33 211.34 390.11" style="fill:#FFC100"></polygon><polygon points="256.74 396.31 271.25 396.27 271.63 391.62 255.78 391.59 256.74 396.31" style="fill:#FFC100"></polygon><path d="M231.33,173.74s2.86,10.28-.23,32.84-6.76-18.88-6.76-18.88l3.21-13.26.23-1.46Z" style="opacity:0.1"></path><path d="M239,155.68s-9.61-7.39-6.11-21.47,19.12-9,19.12-9,7.34-2.53,8.77,1.42-4,5.94-4,5.94-9-3.64-12.94,2.14-1.28,12.2-3.81,13.38S240.63,154.25,239,155.68Z" style="fill:#263238"></path><path d="M235.61,147.8a5.8,5.8,0,0,0,3.43,2.84c2,.59,3-1.15,2.46-3-.45-1.67-2-4-4-3.78a2.65,2.65,0,0,0-1.88,4Z" style="fill:#b55b52"></path><path d="M234.48,164.58s12,7.48,16.41,14.09c0,0,3.42-5.13-.22-14.24,0,0,.74-.64,2.33.35.77.48,3.68,1.74,5,10.49a3.9,3.9,0,0,0-2.22-1.78s3.55,1.18-4.61,6.6c0,0-13-.31-9-4.94,0,0-2.15-.67-4.33,3.25,0,0-3.4-4-5.06-12.75-.11-.62.55-1,1.18-1.09Z" style="opacity:0.2"></path><path d="M234.88,164.3c2,1.37,12.07,8.42,16,14.37,0,0,2.77-5.22-.45-13.9a.66.66,0,0,1,.54-.89,3.61,3.61,0,0,1,2.3.54c.77.48,2.11,1.07,3.74,9a10.45,10.45,0,0,0-3.78-.93s5.94,1.44-2.22,6.87c0,0-11-.48-7-5.11,0,0-3.45-1.58-6.23,2.3,0,0-3.76-2.15-5.41-10.93a1.12,1.12,0,0,1,.93-1.32l.81-.12A1.07,1.07,0,0,1,234.88,164.3Z" style="fill:#FFC100"></path><polygon points="265.67 209.96 260.92 209.96 262.82 172.12 264.72 172.12 265.67 209.96" style="fill:#263238"></polygon><polygon points="265.67 209.96 260.92 209.96 262.82 172.12 264.72 172.12 265.67 209.96" style="fill:#fff;opacity:0.5"></polygon><ellipse cx="264.07" cy="171.91" rx="2.55" ry="1.87" style="fill:#263238"></ellipse><ellipse cx="264.07" cy="171.91" rx="2.55" ry="1.87" style="fill:#fff;opacity:0.6000000000000001"></ellipse><path d="M269.59,211.78H256.66a1.82,1.82,0,0,1,1.83-1.82h9.28a1.82,1.82,0,0,1,1.82,1.82Z" style="fill:#263238"></path><path d="M269.59,211.78H256.66a1.82,1.82,0,0,1,1.83-1.82h9.28a1.82,1.82,0,0,1,1.82,1.82Z" style="fill:#fff;opacity:0.30000000000000004"></path><path d="M264.07,152.77l1.38,18.34,1.18-15.58a2.57,2.57,0,0,0-2.56-2.76Z" style="fill:#263238"></path><path d="M248.88,182.52l15.91-10.32-14.86,6.9a2.4,2.4,0,0,0-1.05,3.42Z" style="fill:#263238"></path><path d="M266.11,172.2l13.67,8.86a2.59,2.59,0,0,0,3.63-.83h0Z" style="fill:#263238"></path><g style="opacity:0.7000000000000001"><path d="M264.07,152.77l1.38,18.34,1.18-15.58a2.57,2.57,0,0,0-2.56-2.76Z" style="fill:#fff"></path><path d="M248.88,182.52l15.91-10.32-14.86,6.9a2.4,2.4,0,0,0-1.05,3.42Z" style="fill:#fff"></path><path d="M266.11,172.2l13.67,8.86a2.59,2.59,0,0,0,3.63-.83h0Z" style="fill:#fff"></path></g><circle cx="265.45" cy="171.98" r="1.25" style="fill:#263238"></circle><circle cx="265.45" cy="171.98" r="1.25" style="fill:#fff;opacity:0.8"></circle><path d="M224.15,168.06c8.71,0,6.44,14.07,2.81,32.84,0,0,9.08,11.65,27.24,13.47a9.33,9.33,0,0,1,8.33-3.55s6.05-2.64,7.26,0-5.45,9.75-16.19,9.15c0,0-36.33-1.21-38.75-12.41S215.43,168.07,224.15,168.06Z" style="fill:#b55b52"></path><path d="M213.39,188.49s6.86-1.31,16.45,1.82c0,0,6.47-21.74-4.65-23.21C214.5,165.69,213.39,188.49,213.39,188.49Z" style="fill:#FFC100"></path></g><g id="freepik--chair-1--inject-28"><polygon points="138.03 413.44 144.3 413.44 139.46 367.38 133.19 367.38 138.03 413.44" style="fill:#FFC100"></polygon><polygon points="138.03 413.44 144.3 413.44 139.46 367.38 133.19 367.38 138.03 413.44" style="fill:#fff;opacity:0.4"></polygon><polygon points="138.03 413.44 141.16 413.44 136.32 367.38 133.19 367.38 138.03 413.44" style="fill:#fff;opacity:0.5"></polygon><polygon points="108.47 413.44 114.75 413.44 109.91 367.38 103.63 367.38 108.47 413.44" style="fill:#FFC100"></polygon><polygon points="108.47 413.44 114.75 413.44 109.91 367.38 103.63 367.38 108.47 413.44" style="fill:#fff;opacity:0.4"></polygon><polygon points="108.47 413.44 111.61 413.44 106.77 367.38 103.63 367.38 108.47 413.44" style="fill:#fff;opacity:0.5"></polygon><polygon points="66.69 413.44 60.41 413.44 65.25 367.38 71.53 367.38 66.69 413.44" style="fill:#FFC100"></polygon><polygon points="66.69 413.44 60.41 413.44 65.25 367.38 71.53 367.38 66.69 413.44" style="fill:#fff;opacity:0.4"></polygon><polygon points="66.69 413.44 63.55 413.44 68.39 367.38 71.53 367.38 66.69 413.44" style="fill:#fff;opacity:0.5"></polygon><polygon points="96.24 413.44 89.97 413.44 94.81 367.38 101.08 367.38 96.24 413.44" style="fill:#FFC100"></polygon><polygon points="96.24 413.44 89.97 413.44 94.81 367.38 101.08 367.38 96.24 413.44" style="fill:#fff;opacity:0.4"></polygon><polygon points="96.24 413.44 93.1 413.44 97.95 367.38 101.08 367.38 96.24 413.44" style="fill:#fff;opacity:0.5"></polygon><path d="M58.07,316.81H99.58a2.47,2.47,0,0,1,2.42,1.92l9.59,41.3h31.14a4.69,4.69,0,0,1,0,9.38H62.86l-7.25-49.76A2.49,2.49,0,0,1,58.07,316.81Z" style="fill:#FFC100"></path><path d="M58.07,316.81H99.58a2.47,2.47,0,0,1,2.42,1.92l9.59,41.3h31.14a4.69,4.69,0,0,1,0,9.38H62.86l-7.25-49.76A2.49,2.49,0,0,1,58.07,316.81Z" style="fill:#fff;opacity:0.5"></path><path d="M60.49,318.73,70.07,360h31.14a4.69,4.69,0,0,1,4.7,4.69h0a4.69,4.69,0,0,1-4.7,4.69H62.86l-7.25-49.76a2.49,2.49,0,0,1,2.46-2.84h0A2.49,2.49,0,0,1,60.49,318.73Z" style="fill:#FFC100"></path><path d="M60.49,318.73,70.07,360h31.14a4.69,4.69,0,0,1,4.7,4.69h0a4.69,4.69,0,0,1-4.7,4.69H62.86l-7.25-49.76a2.49,2.49,0,0,1,2.46-2.84h0A2.49,2.49,0,0,1,60.49,318.73Z" style="fill:#fff;opacity:0.30000000000000004"></path></g><g id="freepik--character-1--inject-28"><path d="M103.7,301.23l.39,5.29s-.14,3.58.33,4.64c.75,1.68,3.27,5.51,5.1,5.3s3.19-4.15,3.51-5.82a6,6,0,0,0-.5-3.07c-.57-1-3.51-2.77-3.51-2.77l-.42-5.46Z" style="fill:#7f3e3b"></path><path d="M167.4,219.24l-.1-5.3s.33-3.57-.08-4.66c-.66-1.72-3-5.67-4.8-5.57s-3.41,4-3.82,5.62a5.92,5.92,0,0,0,.33,3.09c.51,1,3.35,3,3.35,3l.12,5.48Z" style="fill:#7f3e3b"></path><path d="M144.23,258.79s6.75-.12,10.12-5.89,6-14.86,6-14.86l.6-22.14s4.71-2.08,7.56.17c0,0,3.26,17,1.4,24.62-1.94,7.94-7.38,20.8-10.43,27.7a3.4,3.4,0,0,1-5.62.92Z" style="fill:#FFC100"></path><path d="M169.9,240.69c-1.78,7.29-6.52,18.74-9.64,25.9q-.4,1-.78,1.8a3.36,3.36,0,0,1-2.08,1.87,3.4,3.4,0,0,1-3.54-.95l-9.63-10.52s6.75-.12,10.12-5.89,6-14.86,6-14.86l.6-22.14s4.71-2.08,7.56.17C168.51,216.07,171.77,233.07,169.9,240.69Z" style="opacity:0.1"></path><path d="M160.26,266.59q-.4,1-.78,1.8a3.36,3.36,0,0,1-2.08,1.87c-.72-.18-1.21-.34-1.21-.34l-5.18-6-.34-2.12h4.22A68,68,0,0,1,160.26,266.59Z" style="opacity:0.1"></path><path d="M159.91,331.4l11.59,71.51-9.27.35s-11.75-30.46-10.52-43.34c0,0-8-20.38-9.09-26.53Z" style="fill:#7f3e3b"></path><path d="M172.1,403.09a.2.2,0,0,1-.18-.15.19.19,0,0,1,.07-.22c.12-.09,2.89-2.19,4.37-2a1.06,1.06,0,0,1,.69.39.78.78,0,0,1,.13.89,3.65,3.65,0,0,1-2.43,1A14.65,14.65,0,0,1,172.1,403.09Zm.62-.36c1.62,0,3.78-.29,4.1-.9.05-.07.09-.2-.09-.44a.58.58,0,0,0-.44-.23,1.28,1.28,0,0,0-.39,0A9.46,9.46,0,0,0,172.72,402.73Z" style="fill:#FFC100"></path><path d="M172,403.09a.2.2,0,0,1-.11-.17c0-.11-.07-2.46.91-3.5a1.5,1.5,0,0,1,1.08-.49c.57,0,.78.25.83.48.3.94-1.52,3.07-2.48,3.66a.14.14,0,0,1-.09,0A.17.17,0,0,1,172,403.09Zm1.79-3.76a1,1,0,0,0-.66.35,4.81,4.81,0,0,0-.81,2.78c1-.76,2.15-2.4,2-3,0-.05-.06-.2-.43-.18l-.12,0Z" style="fill:#FFC100"></path><path d="M171.08,402l-9.34,1.18a.75.75,0,0,0-.66.68l-.72,7.86a1.26,1.26,0,0,0,1.12,1.39h.27c3.36-.48,6.33-1.05,10.52-1.57,4.95-.63,3.77.13,9.6-.53,3.5-.39,3.64-4.48,2.13-4.49-6.91,0-7.88-2-10.81-4.1A3,3,0,0,0,171.08,402Z" style="fill:#263238"></path><path d="M158.68,307.3s-.67,9.88,5,36.52l-18.41,4.5s-2.18-14.19-7.81-21.5-6.16-19.52-6.16-19.52Z" style="fill:#263238"></path><path d="M140.92,318l-3.21,9.08c3.17,4.28,5.21,10.71,6.38,15.37l.51-28,.71-3.72Z" style="opacity:0.4"></path><path d="M141.3,331.4s-4.82,23.3-6.2,28.63c-3.26,12.66-14.37,44.71-14.37,44.71l-9.39.35s5.26-34.1,11.08-47c0,0,.8-18.57,1.94-24.72Z" style="fill:#7f3e3b"></path><path d="M121.69,404.91a.23.23,0,0,1-.16-.17.21.21,0,0,1,.1-.21c.13-.08,3.16-1.79,4.59-1.38a1.09,1.09,0,0,1,.64.49.77.77,0,0,1,0,.89,3.66,3.66,0,0,1-2.54.65A15.55,15.55,0,0,1,121.69,404.91Zm.67-.27c1.6.21,3.78.21,4.18-.35.06-.07.11-.19,0-.45a.57.57,0,0,0-.4-.29,1.23,1.23,0,0,0-.39-.05A9.32,9.32,0,0,0,122.36,404.64Z" style="fill:#FFC100"></path><path d="M121.59,404.9a.19.19,0,0,1-.09-.19c0-.11.26-2.45,1.36-3.35A1.52,1.52,0,0,1,124,401c.56.06.74.35.76.58.17,1-1.91,2.85-3,3.3h-.08A.22.22,0,0,1,121.59,404.9Zm2.27-3.49a1,1,0,0,0-.71.25,4.9,4.9,0,0,0-1.16,2.65c1.07-.62,2.44-2.09,2.39-2.68,0-.05,0-.2-.4-.23Z" style="fill:#FFC100"></path><path d="M120.82,403.69l-9.41-.08a.78.78,0,0,0-.75.59l-1.76,7.7a1.28,1.28,0,0,0,.94,1.53,1.09,1.09,0,0,0,.26,0c3.39,0,6.41-.2,10.64-.16,5,0,3.71.63,9.57.76,3.53.08,4.21-4,2.72-4.17-6.85-.92-7.54-3-10.17-5.5A3,3,0,0,0,120.82,403.69Z" style="fill:#263238"></path><path d="M149.67,307.3l-6.26,41-21.6-1.87s2.9-12,0-17.9-1-21.25-1-21.25Z" style="fill:#263238"></path><path d="M120.55,266.77c1.61-8.66,6.28-8.7,17.7-9.1,20.42-.72,20.81,9.26,20.28,24.93a247.21,247.21,0,0,0,.23,25.23c-33.3,4-38.17-.19-38.17-.19-.36-10.64-.7-20.53-.76-27Z" style="fill:#FFC100"></path><path d="M132.44,250.1s2,8.85-.91,8.73c0,0,10.11,10.19,12.78-.8,0,0-2.93.43-2.58-5.33Z" style="fill:#7f3e3b"></path><path d="M140,255.93a9.8,9.8,0,0,1,.71-3.05l-8.11-5.21s-.07.89-.26,2.09A13.7,13.7,0,0,0,140,255.93Z" style="opacity:0.1"></path><path d="M123.31,241.81c3,7.39,4.2,10.61,9.3,13.13,7.73,3.87,16.14-1.49,15.36-9.64-.73-7.32-5.52-18.21-14-18.67a10.91,10.91,0,0,0-10.68,15.18Z" style="fill:#7f3e3b"></path><path d="M136,239.69c.21.61.7,1,1.11.86s.56-.74.34-1.35-.7-1-1.1-.87S135.83,239.08,136,239.69Z" style="fill:#263238"></path><path d="M143,237.31c.2.62.71,1,1.1.87s.56-.75.35-1.37-.71-1-1.1-.86S142.78,236.7,143,237.31Z" style="fill:#263238"></path><path d="M141.23,239.16a17.19,17.19,0,0,0,3.53,3.17,2.81,2.81,0,0,1-2,1.16Z" style="fill:#630f0f"></path><path d="M143.31,245.8a6.85,6.85,0,0,0,.87-.4.19.19,0,0,0,0-.27.18.18,0,0,0-.21,0,5.19,5.19,0,0,1-4.65.26.18.18,0,0,0-.25.07.22.22,0,0,0,.07.27A5.36,5.36,0,0,0,143.31,245.8Z" style="fill:#263238"></path><path d="M134,237.8a.38.38,0,0,0,.39-.23c.71-1.62,2.93-2.09,3-2.09a.38.38,0,0,0,.3-.45.39.39,0,0,0-.45-.3c-.08.06-2.63.56-3.51,2.52a.4.4,0,0,0,.2.51A.28.28,0,0,0,134,237.8Z" style="fill:#263238"></path><path d="M144,233.54a.42.42,0,0,0,.29-.26.38.38,0,0,0-.24-.48,3.8,3.8,0,0,0-3.46.42.39.39,0,1,0,.47.61,3,3,0,0,1,2.74-.3A.46.46,0,0,0,144,233.54Z" style="fill:#263238"></path><path d="M143,227.34c-.75-1.42-2.78-1.78-4.26-1.84a1.27,1.27,0,0,1-1.19-1.55c.29-1.38.31-3.19-1.59-3.4a4.34,4.34,0,0,0-3.68,1.91,1.59,1.59,0,0,1-2.54,0c-1-1.39-2.45-2.72-4.21-1.6a3.52,3.52,0,0,0-1.65,3.44,1.32,1.32,0,0,1-1.77,1.37c-1.78-.69-4-1.09-4.9.68s.26,3.24,1.48,4.24a1.33,1.33,0,0,1-.29,2.23c-1.87.89-4.12,2.32-3.7,4a2.23,2.23,0,0,0,1.32,1.6,1.65,1.65,0,0,1,.8,2.42c-.88,1.34-1.59,2.87-.93,3.64s2.2.67,3.32.34a1.11,1.11,0,0,1,1.44,1c0,1.43.31,3.35,1.44,3.79a1.7,1.7,0,0,0,1,.09,2.62,2.62,0,0,1,3.05,1.57c.5,1.26,1.13,2.34,1.75,2.2,1.43-.31-1-7.73-1-7.73s.37-.54.15-2.38a1.53,1.53,0,0,0,1.78.78c2.9-.63.77-6.33.77-6.33a3.54,3.54,0,0,0,2.69,2.11c1.28.1,1.22-2.39,1.06-4a1.71,1.71,0,0,1,1.12-1.79,15.24,15.24,0,0,1,2.92-.74c2.59-.39,4.46-1.12,2.38-2.49a.57.57,0,0,1,.2-1C141.61,229.53,143.77,228.83,143,227.34Z" style="fill:#263238"></path><path d="M123.41,248.49a5.85,5.85,0,0,0,4,2c2,.15,2.67-1.79,1.74-3.49-.82-1.54-2.86-3.48-4.75-2.82a2.62,2.62,0,0,0-1,4.29Z" style="fill:#7f3e3b"></path><path d="M120.55,267l1.12-.86,2.71-1.23,1.7.56s.46,7.19-6.25,15.39Z" style="opacity:0.1"></path><path d="M125.21,259.28s-25,10.51-24.13,21.76c1.36,16.45,1.55,24.44,1.55,24.44l8.08-.75-.18-21.19c3-6.32,10.67-6.79,13.86-12.23S125.21,259.28,125.21,259.28Z" style="fill:#FFC100"></path></g><g id="freepik--table-1--inject-28"><path d="M175.74,405.64v-76.4h66.73v76.4a8.12,8.12,0,0,1-8.11,8.11H183.85A8.12,8.12,0,0,1,175.74,405.64Zm3.49-72.9v72.9a4.62,4.62,0,0,0,4.62,4.61h50.51a4.62,4.62,0,0,0,4.62-4.61v-72.9Z" style="fill:#FFC100"></path><g style="opacity:0.4"><path d="M175.74,405.64v-76.4h66.73v76.4a8.12,8.12,0,0,1-8.11,8.11H183.85A8.12,8.12,0,0,1,175.74,405.64Zm3.49-72.9v72.9a4.62,4.62,0,0,0,4.62,4.61h50.51a4.62,4.62,0,0,0,4.62-4.61v-72.9Z" style="fill:#fff"></path></g><path d="M130.66,405.64v-76.4H197.4v76.4a8.12,8.12,0,0,1-8.12,8.11H138.77A8.12,8.12,0,0,1,130.66,405.64Zm3.49-72.9v72.9a4.62,4.62,0,0,0,4.62,4.61h50.51a4.62,4.62,0,0,0,4.62-4.61v-72.9Z" style="fill:#FFC100"></path><g style="opacity:0.6000000000000001"><path d="M130.66,405.64v-76.4H197.4v76.4a8.12,8.12,0,0,1-8.12,8.11H138.77A8.12,8.12,0,0,1,130.66,405.64Zm3.49-72.9v72.9a4.62,4.62,0,0,0,4.62,4.61h50.51a4.62,4.62,0,0,0,4.62-4.61v-72.9Z" style="fill:#fff"></path></g><rect x="200.64" y="324.16" width="45.08" height="9.04" transform="translate(446.36 657.37) rotate(180)" style="fill:#FFC100"></rect><rect x="127.42" y="324.16" width="73.22" height="9.04" transform="translate(328.05 657.37) rotate(180)" style="fill:#FFC100"></rect><rect x="127.42" y="324.16" width="73.22" height="9.04" transform="translate(328.05 657.37) rotate(180)" style="fill:#fff;opacity:0.1"></rect><rect x="200.64" y="320.5" width="50.07" height="4.8" transform="translate(451.35 645.8) rotate(180)" style="fill:#FFC100"></rect><rect x="200.64" y="320.5" width="50.07" height="4.8" transform="translate(451.35 645.8) rotate(180)" style="fill:#fff;opacity:0.1"></rect><rect x="122.42" y="320.5" width="78.21" height="4.8" transform="translate(323.06 645.8) rotate(180)" style="fill:#FFC100"></rect><rect x="122.42" y="320.5" width="78.21" height="4.8" transform="translate(323.06 645.8) rotate(180)" style="fill:#fff;opacity:0.30000000000000004"></rect><g id="freepik--Book--inject-28"><path d="M175.43,318.9v-7.81a.75.75,0,0,1,0-1.5l8.94,0V320.4h-8.94A.75.75,0,0,1,175.43,318.9Z" style="fill:#FFC100"></path><path d="M175.43,318.9v-7.81a.75.75,0,0,1,0-1.5l8.94,0V320.4h-8.94A.75.75,0,0,1,175.43,318.9Z" style="fill:#fff;opacity:0.30000000000000004"></path><rect x="175.43" y="311.09" width="6.94" height="7.8" style="fill:#FFC100"></rect><rect x="175.43" y="311.09" width="6.94" height="7.8" style="fill:#fff;opacity:0.8"></rect><path d="M180.92,319.65H205c1.66,0,3-2.09,3-4.65s-1.34-4.66-3-4.66H180.92Z" style="fill:#FFC100"></path><path d="M180.92,319.65H205c1.66,0,3-2.09,3-4.65s-1.34-4.66-3-4.66H180.92Z" style="fill:#fff;opacity:0.9"></path><path d="M180.92,309.59c7.87,0,15.76-.14,23.64,0,5.39.1,5.68,10.44.39,10.81-3.69.25-7.48,0-11.18,0H180.92a.75.75,0,0,1,0-1.5h22.39c1.73,0,3,0,3.63-2.06.58-1.76.4-5.36-2-5.75a5.47,5.47,0,0,0-.81,0H180.92a.75.75,0,0,1,0-1.5Z" style="fill:#FFC100"></path></g><g id="freepik--Windmill--inject-28"><polygon points="149.23 318.76 144.48 318.76 146.38 280.92 148.28 280.92 149.23 318.76" style="fill:#263238"></polygon><polygon points="149.23 318.76 144.48 318.76 146.38 280.92 148.28 280.92 149.23 318.76" style="fill:#fff;opacity:0.5"></polygon><path d="M150.18,280.71c0,1-1.14,1.88-2.55,1.88s-2.56-.84-2.56-1.88,1.15-1.87,2.56-1.87S150.18,279.68,150.18,280.71Z" style="fill:#263238"></path><path d="M150.18,280.71c0,1-1.14,1.88-2.55,1.88s-2.56-.84-2.56-1.88,1.15-1.87,2.56-1.87S150.18,279.68,150.18,280.71Z" style="fill:#fff;opacity:0.6000000000000001"></path><path d="M153.15,320.59H140.22a1.83,1.83,0,0,1,1.83-1.83h9.27a1.83,1.83,0,0,1,1.83,1.83Z" style="fill:#263238"></path><path d="M153.15,320.59H140.22a1.83,1.83,0,0,1,1.83-1.83h9.27a1.83,1.83,0,0,1,1.83,1.83Z" style="fill:#fff;opacity:0.30000000000000004"></path><path d="M147.63,261.58,149,279.91l1.17-15.58a2.55,2.55,0,0,0-2.55-2.75Z" style="fill:#263238"></path><path d="M132.44,291.32,148.35,281l-14.87,6.89a2.4,2.4,0,0,0-1,3.42Z" style="fill:#263238"></path><path d="M149.67,281l13.66,8.86A2.6,2.6,0,0,0,167,289h0Z" style="fill:#263238"></path><g style="opacity:0.7000000000000001"><path d="M147.63,261.58,149,279.91l1.17-15.58a2.55,2.55,0,0,0-2.55-2.75Z" style="fill:#fff"></path><path d="M132.44,291.32,148.35,281l-14.87,6.89a2.4,2.4,0,0,0-1,3.42Z" style="fill:#fff"></path><path d="M149.67,281l13.66,8.86A2.6,2.6,0,0,0,167,289h0Z" style="fill:#fff"></path></g><path d="M150.26,280.79a1.25,1.25,0,1,1-1.25-1.25A1.24,1.24,0,0,1,150.26,280.79Z" style="fill:#263238"></path><path d="M150.26,280.79a1.25,1.25,0,1,1-1.25-1.25A1.24,1.24,0,0,1,150.26,280.79Z" style="fill:#fff;opacity:0.8"></path></g></g></svg>