<svg xmlns="http://www.w3.org/2000/svg" viewBox="0 0 500 500"><g id="freepik--background-complete--inject-21"><rect y="382.4" width="500" height="0.25" style="fill:#ebebeb"></rect><rect x="355.33" y="389.91" width="33.12" height="0.25" style="fill:#ebebeb"></rect><rect x="257.97" y="398.37" width="44.03" height="0.25" style="fill:#ebebeb"></rect><rect x="389.46" y="399.19" width="44.78" height="0.25" style="fill:#ebebeb"></rect><rect x="53.69" y="389.66" width="43.19" height="0.25" style="fill:#ebebeb"></rect><rect x="105.79" y="389.66" width="6.33" height="0.25" style="fill:#ebebeb"></rect><rect x="132.7" y="393.88" width="93.68" height="0.25" style="fill:#ebebeb"></rect><path d="M237,337.8H43.91a5.71,5.71,0,0,1-5.7-5.71V60.66A5.71,5.71,0,0,1,43.91,55H237a5.71,5.71,0,0,1,5.71,5.71V332.09A5.71,5.71,0,0,1,237,337.8ZM43.91,55.2a5.46,5.46,0,0,0-5.45,5.46V332.09a5.46,5.46,0,0,0,5.45,5.46H237a5.47,5.47,0,0,0,5.46-5.46V60.66A5.47,5.47,0,0,0,237,55.2Z" style="fill:#ebebeb"></path><path d="M453.31,337.8H260.21a5.72,5.72,0,0,1-5.71-5.71V60.66A5.72,5.72,0,0,1,260.21,55h193.1A5.71,5.71,0,0,1,459,60.66V332.09A5.71,5.71,0,0,1,453.31,337.8ZM260.21,55.2a5.47,5.47,0,0,0-5.46,5.46V332.09a5.47,5.47,0,0,0,5.46,5.46h193.1a5.47,5.47,0,0,0,5.46-5.46V60.66a5.47,5.47,0,0,0-5.46-5.46Z" style="fill:#ebebeb"></path><rect x="341.71" y="79.14" width="93.46" height="171.83" transform="translate(776.89 330.12) rotate(180)" style="fill:#e6e6e6"></rect><rect x="331.06" y="79.14" width="101.57" height="171.83" transform="translate(763.69 330.12) rotate(180)" style="fill:#f0f0f0"></rect><rect x="304.44" y="122.78" width="154.81" height="84.55" transform="translate(546.91 -216.79) rotate(90)" style="fill:#fff"></rect><rect x="53.69" y="86.1" width="73.6" height="85.54" style="fill:#e0e0e0"></rect><rect x="56.18" y="86.1" width="75.51" height="85.54" style="fill:#f5f5f5"></rect><rect x="57.9" y="97.44" width="72.06" height="62.86" transform="translate(222.8 34.94) rotate(90)" style="fill:#fff"></rect><rect x="156.93" y="136.03" width="73.6" height="85.54" style="fill:#e0e0e0"></rect><rect x="159.42" y="136.03" width="75.51" height="85.54" style="fill:#f5f5f5"></rect><rect x="161.15" y="147.38" width="72.06" height="62.86" transform="translate(375.98 -18.37) rotate(90)" style="fill:#fff"></rect><path d="M188.45,292.81h0c-.5,0-1,0-1.52.05a21.71,21.71,0,0,0-19.42,27.27,108.32,108.32,0,0,1,3.4,28.24v27.74a3.64,3.64,0,0,0,3.65,3.64h88V292.81Z" style="fill:#f0f0f0"></path><path d="M284.27,314.5A21.68,21.68,0,0,0,241,313.08a22,22,0,0,0,.7,7.06,108.75,108.75,0,0,1,3.4,28.24v27.74a3.64,3.64,0,0,0,3.64,3.64h27.8a3.64,3.64,0,0,0,3.64-3.64V346.76a98.82,98.82,0,0,1,3.36-26.47A21.69,21.69,0,0,0,284.27,314.5Z" style="fill:#f5f5f5"></path><rect x="153.69" y="326.97" width="79.02" height="52.79" style="fill:#f0f0f0"></rect><path d="M163.7,252.2H90.76c-9.07,0-15.23,7.35-13.76,16.41L88.38,338.9H194.15l-11.38-70.29C181.3,259.55,172.76,252.2,163.7,252.2Z" style="fill:#ebebeb"></path><path d="M185.15,252.2H110.63c-8.63,0-14.49,7-13.09,15.62l11.51,71.08H214.81L203.3,267.82C201.9,259.2,193.78,252.2,185.15,252.2Z" style="fill:#f5f5f5"></path><path d="M158.86,322.15H231.7a4.76,4.76,0,0,1,4.76,4.76v12a4.76,4.76,0,0,1-4.76,4.76H158.86a1.42,1.42,0,0,1-1.42-1.42V323.57A1.42,1.42,0,0,1,158.86,322.15Z" style="fill:#ebebeb"></path><path d="M80.59,292.81h0c-.5,0-1,0-1.52.05A21.76,21.76,0,0,0,59,313.08a22,22,0,0,0,.7,7.06,108.32,108.32,0,0,1,3.4,28.24v27.74a3.64,3.64,0,0,0,3.64,3.64h88V292.81Z" style="fill:#f0f0f0"></path><path d="M176.41,314.5a21.68,21.68,0,1,0-42.62,5.64,108.75,108.75,0,0,1,3.4,28.24v27.74a3.64,3.64,0,0,0,3.64,3.64h27.8a3.64,3.64,0,0,0,3.64-3.64V346.76a99.22,99.22,0,0,1,3.35-26.47A21.3,21.3,0,0,0,176.41,314.5Z" style="fill:#f5f5f5"></path><path d="M261,382.4H82.14a2.64,2.64,0,0,1-2.64-2.64H263.68A2.64,2.64,0,0,1,261,382.4Z" style="fill:#e0e0e0"></path><rect x="410.7" y="341.71" width="43.04" height="3.53" style="fill:#e6e6e6"></rect><rect x="329.52" y="301.13" width="7.95" height="81.27" transform="translate(666.99 683.53) rotate(180)" style="fill:#e6e6e6"></rect><rect x="302" y="341.71" width="108.7" height="3.53" transform="translate(712.7 686.96) rotate(180)" style="fill:#f5f5f5"></rect><rect x="410.7" y="361.04" width="43.04" height="3.53" style="fill:#e6e6e6"></rect><rect x="302" y="361.04" width="108.7" height="3.53" transform="translate(712.7 725.61) rotate(180)" style="fill:#f5f5f5"></rect><rect x="410.7" y="303.06" width="43.04" height="3.53" style="fill:#e6e6e6"></rect><rect x="302" y="303.06" width="108.7" height="3.53" transform="translate(712.7 609.66) rotate(180)" style="fill:#f5f5f5"></rect><rect x="410.7" y="322.39" width="43.04" height="3.53" style="fill:#e6e6e6"></rect><rect x="302" y="322.39" width="108.7" height="3.53" transform="translate(712.7 648.31) rotate(180)" style="fill:#f5f5f5"></rect><rect x="438.22" y="301.13" width="7.95" height="81.27" transform="translate(884.39 683.53) rotate(180)" style="fill:#e6e6e6"></rect><rect x="402.76" y="301.13" width="7.95" height="81.27" transform="translate(813.46 683.53) rotate(180)" style="fill:#f5f5f5"></rect><rect x="302" y="301.13" width="7.95" height="81.27" transform="translate(611.95 683.53) rotate(180)" style="fill:#f5f5f5"></rect><rect x="380.18" y="252.78" width="4.25" height="47.39" transform="translate(764.61 552.96) rotate(180)" style="fill:#e6e6e6"></rect><rect x="380.72" y="252.75" width="1.2" height="47.39" transform="translate(762.65 552.89) rotate(180)" style="fill:#f0f0f0"></rect><path d="M366.56,303.06H398a4,4,0,0,0-4-4H370.53a4,4,0,0,0-4,4Z" style="fill:#f0f0f0"></path><rect x="374.78" y="297.72" width="2.45" height="4.17" rx="0.43" transform="translate(752.01 599.61) rotate(180)" style="fill:#f0f0f0"></rect><path d="M363.27,264h38.07l-3.64-30.36a7.06,7.06,0,0,0-7-6.23H373.93a7.08,7.08,0,0,0-7,6.23Z" style="fill:#f5f5f5"></path></g><g id="freepik--Shadow--inject-21"><ellipse id="freepik--path--inject-21" cx="250" cy="416.24" rx="193.89" ry="11.32" style="fill:#f5f5f5"></ellipse></g><g id="freepik--Character--inject-21"><path d="M295.71,162.37l-.35,1.18-.32,1c-.22.67-.46,1.29-.7,1.93-.48,1.25-1,2.47-1.57,3.68a66.5,66.5,0,0,1-3.75,7c-.69,1.13-1.42,2.22-2.16,3.31s-1.53,2.14-2.36,3.17a68.69,68.69,0,0,1-5.23,5.95l-.39.4A6.08,6.08,0,0,1,277,191.3a14.85,14.85,0,0,1-6.62,1.23,16.75,16.75,0,0,1-5.74-1.35,20.51,20.51,0,0,1-4.29-2.46,31,31,0,0,1-3.37-2.85,42.51,42.51,0,0,1-5.16-6.26c-.74-1.08-1.42-2.19-2.07-3.31s-1.21-2.24-1.82-3.53a4,4,0,0,1,6.34-4.64l.26.24,2.44,2.24c.83.76,1.68,1.49,2.53,2.19a44.71,44.71,0,0,0,5.1,3.74,14.25,14.25,0,0,0,4.58,2,2.34,2.34,0,0,0,1.27,0,.67.67,0,0,0,.32-.3l-2.3,1.74c1.27-1.72,2.5-3.46,3.63-5.26s2.21-3.66,3.22-5.53,1.94-3.8,2.8-5.73c.44-1,.83-1.94,1.23-2.9l1-2.62.28-.72a8,8,0,0,1,15.1,5.13Z" style="fill:#263238"></path><path d="M250.76,172.82,244,170.47l-1.42-9.26s11.33,3,11.28,8.46Z" style="fill:#ce7a63"></path><path d="M290.58,124.58c-4.41-1.55-10.5-6.83-8.11-13.66,1.82-5.18,8.56-5.64,11.21-4.09s2.76-1.63,6.15-2.85,5.78,1.85,7.5,3.46,3.73.39,6.28.5,4.37,3.45,2.95,5.89c-2.5,4.28,1.63,7-1.5,10.34-4.61,4.85-1,9.61-7.5,14.44C303.61,141.57,292.39,136.14,290.58,124.58Z" style="fill:#263238"></path><path d="M290.5,129.1a1.23,1.23,0,0,1-.54.17,1.26,1.26,0,0,1-1.36-1.14,12.48,12.48,0,0,1,4.12-10.71,1.24,1.24,0,0,1,1.76.22,1.25,1.25,0,0,1-.2,1.76h0a9.91,9.91,0,0,0-3.17,8.51A1.26,1.26,0,0,1,290.5,129.1Z" style="fill:#263238"></path><path d="M283.31,152.37s-8.87,22.7-.45,65h40.21c.28-6.17-3.6-36.28,2.35-65.36a105.49,105.49,0,0,0-13.46-1.7,147.53,147.53,0,0,0-17.09,0A74.79,74.79,0,0,0,283.31,152.37Z" style="fill:#fff"></path><path d="M310.27,131c-1.08,5.5-2.15,15.58,1.69,19.25,0,0-6.44,5.22-13.21,10.5a11.39,11.39,0,0,1-3.88-10.5c6.13-1.46,6-6,4.91-10.29Z" style="fill:#ce7a63"></path><path d="M306,134.69l-6.21,5.3a17.2,17.2,0,0,1,.53,3c2,1.9,5.56-2.91,5.81-5.36A8.31,8.31,0,0,0,306,134.69Z" style="opacity:0.2"></path><path d="M310.2,121.75c.28,7.46.82,11.81-2.54,16-5.07,6.28-14.55,3.79-17.05-3.44-2.25-6.5-2.33-17.6,4.64-21.26A10.17,10.17,0,0,1,310.2,121.75Z" style="fill:#ce7a63"></path><path d="M310,128.65c-2.05,4-4.41-8.65-3.81-10.76-7.25,2-18.37,1.34-17.51-3.72,1-5.71,7.64-5.93,15-5.23C315.83,110.11,312.22,124.31,310,128.65Z" style="fill:#263238"></path><path d="M306.41,129.36a1.19,1.19,0,0,1-.55-.1,1.26,1.26,0,0,1-.65-1.66,12.48,12.48,0,0,1,8.74-7.43,1.25,1.25,0,0,1,1.45,1,1.27,1.27,0,0,1-1,1.45h0a9.94,9.94,0,0,0-6.86,6A1.23,1.23,0,0,1,306.41,129.36Z" style="fill:#263238"></path><path d="M313.92,127a7.53,7.53,0,0,1-2.92,4.47c-1.95,1.36-3.49-.31-3.44-2.66.05-2.11,1.13-5.35,3.31-5.77S314.41,124.79,313.92,127Z" style="fill:#ce7a63"></path><path d="M278.78,406.37c-.93.23-1.86.32-2.26,0a.67.67,0,0,1-.16-.76.86.86,0,0,1,.45-.53c1.13-.63,4,.19,4.13.23a.17.17,0,0,1,0,.33A13.24,13.24,0,0,1,278.78,406.37Zm-1.48-1.13a1.33,1.33,0,0,0-.32.12.54.54,0,0,0-.28.32c-.08.25,0,.34.05.39.45.39,2.29-.05,3.6-.58A8,8,0,0,0,277.3,405.24Z" style="fill:#263238"></path><path d="M280.93,405.62h-.07c-1-.17-3.08-1.32-3.14-2.18,0-.2.07-.48.53-.64a1.32,1.32,0,0,1,1,.06c1.1.53,1.75,2.45,1.78,2.53a.17.17,0,0,1,0,.18A.19.19,0,0,1,280.93,405.62Zm-2.46-2.52-.1,0c-.31.1-.3.23-.29.27,0,.52,1.5,1.46,2.52,1.78a4.08,4.08,0,0,0-1.48-2A1,1,0,0,0,278.47,403.1Z" style="fill:#263238"></path><polygon points="291.86 408 284.33 409.11 284.57 391.85 292.1 390.75 291.86 408" style="fill:#ce7a63"></polygon><path d="M283.2,404.65h9.87a.59.59,0,0,1,.6.51l1,6.65a1.19,1.19,0,0,1-1.18,1.33c-2.95-.05-7.19-.22-10.9-.22-4.33,0-8.22.23-13.3.23-3.07,0-3.64-2.91-2.37-3.38,5.68-2.13,8.72-2.49,14.47-4.54A5.76,5.76,0,0,1,283.2,404.65Z" style="fill:#263238"></path><polygon points="284.57 391.86 284.44 400.75 291.98 399.64 292.11 390.75 284.57 391.86" style="opacity:0.2"></polygon><path d="M288,405.18c-.05-3.19.95-8.32-7-5.18-4.74,1.86,1.69,7.33,1.69,7.33Z" style="fill:#263238"></path><path d="M282.86,217.34s-4,60.57-2.87,82.11c1.1,20.41,1.72,78.31,1.86,93.5a3.26,3.26,0,0,0,3.7,3.19l5.32-.72a3.27,3.27,0,0,0,2.8-2.81c3.44-26.81,7.53-68.17,8.42-90.31,1-25.27,7.22-85,7.22-85Z" style="fill:#FFC100"></path><path d="M282.86,217.34s-4,60.57-2.87,82.11c1.1,20.41,1.72,78.31,1.86,93.5a3.26,3.26,0,0,0,3.7,3.19l5.32-.72a3.27,3.27,0,0,0,2.8-2.81c3.44-26.81,7.53-68.17,8.42-90.31,1-25.27,7.22-85,7.22-85Z" style="fill:#fff;opacity:0.2"></path><path d="M333.06,405.38c-.87.39-1.77.65-2.23.38a.65.65,0,0,1-.29-.71.84.84,0,0,1,.35-.61c1-.82,4-.52,4.1-.51a.18.18,0,0,1,.16.13.19.19,0,0,1-.07.19A13,13,0,0,1,333.06,405.38Zm-1.66-.85a1.6,1.6,0,0,0-.29.18.51.51,0,0,0-.22.37c0,.25.06.34.12.37.51.31,2.24-.46,3.44-1.2A8,8,0,0,0,331.4,404.53Z" style="fill:#263238"></path><path d="M335,404.27H335c-1,0-3.26-.75-3.47-1.59-.05-.19,0-.48.41-.72a1.27,1.27,0,0,1,1-.12c1.18.33,2.17,2.09,2.21,2.17a.19.19,0,0,1,0,.18A.22.22,0,0,1,335,404.27Zm-2.87-2-.09,0c-.28.16-.25.28-.24.32.13.5,1.74,1.17,2.8,1.31a4.09,4.09,0,0,0-1.81-1.72A.93.93,0,0,0,332.17,402.23Z" style="fill:#263238"></path><polygon points="346.66 404.71 339.56 407.12 334.85 390.43 341.94 388.02 346.66 404.71" style="fill:#ce7a63"></polygon><path d="M301.52,239c-2.07,8.29-1.52,42.74.62,62.16.51-11.37,1.95-28.9,3.41-45Z" style="opacity:0.2"></path><path d="M336.83,403.07l9.72-1.75a.63.63,0,0,1,.71.39l2.55,6.3a1.1,1.1,0,0,1-.84,1.5c-2.91.48-7.13,1.06-10.78,1.72-4.26.77-4.29,1-9.29,1.92-3,.55-4.29-2.18-3.16-2.87,5.08-3.08,4.25-3.29,9.41-6.31A5.47,5.47,0,0,1,336.83,403.07Z" style="fill:#263238"></path><polygon points="334.85 390.44 337.28 399.04 344.38 396.63 341.95 388.03 334.85 390.44" style="opacity:0.2"></polygon><path d="M297.13,217.34s5.18,60.58,9.17,82.11c3.84,20.72,21.21,79.74,26.33,93.15a3.25,3.25,0,0,0,4.06,1.93l5.13-1.67a3.26,3.26,0,0,0,2.19-3.71c-5.1-26.33-13.22-64.81-15.24-86.85-2.31-25.27-5.7-85-5.7-85Z" style="fill:#FFC100"></path><path d="M297.13,217.34s5.18,60.58,9.17,82.11c3.84,20.72,21.21,79.74,26.33,93.15a3.25,3.25,0,0,0,4.06,1.93l5.13-1.67a3.26,3.26,0,0,0,2.19-3.71c-5.1-26.33-13.22-64.81-15.24-86.85-2.31-25.27-5.7-85-5.7-85Z" style="fill:#fff;opacity:0.2"></path><path d="M299.17,124.93c.06.61-.21,1.13-.61,1.17s-.76-.42-.82-1,.21-1.12.61-1.16S299.11,124.33,299.17,124.93Z" style="fill:#263238"></path><path d="M292.35,125.61c.06.6-.21,1.12-.61,1.16s-.76-.42-.82-1,.21-1.13.61-1.17S292.29,125,292.35,125.61Z" style="fill:#263238"></path><path d="M294.55,125.69a21.64,21.64,0,0,1-2.38,5.45,3.5,3.5,0,0,0,2.94.25Z" style="fill:#ba4d3c"></path><path d="M297,132.89a.18.18,0,0,1-.19-.16.18.18,0,0,1,.16-.2,4.78,4.78,0,0,0,3.71-2.25.18.18,0,0,1,.24-.08.19.19,0,0,1,.08.24A5.1,5.1,0,0,1,297,132.89Z" style="fill:#263238"></path><path d="M301,122.53a.38.38,0,0,1-.3-.11,2.83,2.83,0,0,0-2.39-1,.36.36,0,0,1-.41-.29.35.35,0,0,1,.29-.41,3.51,3.51,0,0,1,3,1.17.35.35,0,0,1,0,.51A.4.4,0,0,1,301,122.53Z" style="fill:#263238"></path><path d="M289.05,123.49a.41.41,0,0,1-.16,0,.36.36,0,0,1-.18-.47,3.54,3.54,0,0,1,2.48-2.09.36.36,0,1,1,.12.7h0a2.83,2.83,0,0,0-1.95,1.68A.35.35,0,0,1,289.05,123.49Z" style="fill:#263238"></path><path d="M313,149c3.92,0,13.37.21,14.29,3.71s-.09,9.17-1.34,12.5c1.84,5.08,1.25,12.58-.5,14.92,1.92,5.66.67,9.83-.5,11.83.92,2.25,1.75,8.67.34,11.83,1.16,4.5,2.49,12,.41,13.51-2.83,2-10.36,3-15.68,1.74s-3.23-12-2.82-14.5c-2.33-3.08.17-12.33.17-12.33-1.17-2.58.58-12.25.58-12.25-1.41-2.33.42-15,.42-15C306.85,162.42,306.19,149,313,149Z" style="fill:#263238"></path><path d="M284.21,151.33c3.08-1.36,13.4-3.83,11.4-1.11-2.9,3.95-1.12,8.11-2.84,13,1.52,4.67,1,12.3-.41,15A18,18,0,0,1,292,190.2c.75,2,1.44,8.27.27,11.75,1,4.24,1.76,12.79,0,14.72A8.86,8.86,0,0,1,282,218.76c-2.45-1-3.54-9.18-2.33-12-2.38-5.19-.44-12.88-.44-12.88-2.3-4-.52-12.39-.52-12.39-2.28-7.44.52-15.67.52-15.67C278,163.59,279.3,153.5,284.21,151.33Z" style="fill:#263238"></path><path d="M291,152.25a3.29,3.29,0,0,1-1.33-2.62,2.59,2.59,0,0,1,2.55-2.65,8.44,8.44,0,0,1,3.34,1c1.57.77,2.15,1.48,2.22,2.64s-2.79,5.24-4.36,4.27S291.88,153.25,291,152.25Z" style="fill:#263238"></path><path d="M321.34,166.55c.78-3.37,2.76-3.07,4.73-1.69l-.14.39c1.84,5.08,1.25,12.58-.5,14.92.11.32.21.64.3,1C323.28,178.77,319.88,172.91,321.34,166.55Z" style="opacity:0.2"></path><polygon points="321.68 174.78 315.03 177.82 314.38 199.3 296.31 210.94 316.54 218.2 322.03 238.97 328.69 235.94 332.41 202.06 321.68 174.78" style="fill:#FFC100"></polygon><polygon points="321.68 174.78 315.03 177.82 314.38 199.3 296.31 210.94 316.54 218.2 322.03 238.97 328.69 235.94 332.41 202.06 321.68 174.78" style="opacity:0.30000000000000004"></polygon><polygon points="363.3 220.14 356.64 223.18 335.18 221.98 344.16 215.92 363.3 220.14" style="fill:#FFC100"></polygon><polygon points="363.3 220.14 356.64 223.18 335.18 221.98 344.16 215.92 363.3 220.14" style="opacity:0.30000000000000004"></polygon><polygon points="321.68 174.78 338.34 188.36 358.97 182.34 351.2 202.38 363.3 220.14 341.84 218.94 328.69 235.94 323.19 215.16 302.97 207.9 321.03 196.26 321.68 174.78" style="fill:#FFC100"></polygon><path d="M332.15,217.48l-.15,6.79,8-.45s1.08-4.25-3.52-7.21Z" style="fill:#ce7a63"></path><polygon points="334.57 231.07 340.11 227.88 340.01 223.82 332 224.27 334.57 231.07" style="fill:#ce7a63"></polygon><path d="M327.56,152.51c.65.6,1.14,1.06,1.68,1.59s1,1,1.56,1.56c1,1.05,2,2.13,3,3.22a86.59,86.59,0,0,1,5.51,7,58.85,58.85,0,0,1,4.81,8,30,30,0,0,1,3.16,10.35,13.7,13.7,0,0,1,.09,1.61v.84l0,.58-.17,2.27c-.18,1.49-.36,3-.61,4.41a85.32,85.32,0,0,1-1.82,8.47,99.07,99.07,0,0,1-5.7,16,4,4,0,0,1-7.64-2l0-.16c.43-5.28,1-10.66,1.29-15.88.2-2.62.28-5.21.34-7.74,0-1.27,0-2.51,0-3.75l-.08-1.8,0-.44,0-.19a3.23,3.23,0,0,0-.09-.42,20.51,20.51,0,0,0-2.24-5,59.07,59.07,0,0,0-4-5.75c-1.51-1.92-3.13-3.83-4.81-5.71-.84-.94-1.71-1.86-2.57-2.79l-1.3-1.37-1.23-1.27-.2-.21a8,8,0,0,1,11.17-11.44Z" style="fill:#263238"></path><path d="M316,151.37c1-.14,1.26-2.48.46-4-.65-1.25-3-1.08-5.1-.54a16,16,0,0,0-4.79,1.92c-2.12,1.17-1.35,2.58-.86,3.69s1.42,3.66,3.42,2.31S314.6,151.58,316,151.37Z" style="fill:#263238"></path><path d="M341.22,402.63c-.15-3.19.69-8.34-7.16-5-4.69,2,1.9,7.28,1.9,7.28Z" style="fill:#263238"></path><path d="M242.9,154h10.74a1.47,1.47,0,0,1,1.34,1l5.62,20a.77.77,0,0,1-.75,1H249.1a1.49,1.49,0,0,1-1.33-1l-5.62-20A.76.76,0,0,1,242.9,154Z" style="fill:#FFC100"></path><polygon points="248.75 167.48 246.5 159.65 242.58 161.21 244 170.47 248.75 167.48" style="fill:#ce7a63"></polygon><path d="M254.5,154.72h0a.51.51,0,0,1,.46.37L260.59,175a.26.26,0,0,1-.26.36h0a.5.5,0,0,1-.46-.36l-5.61-19.94A.27.27,0,0,1,254.5,154.72Z" style="opacity:0.30000000000000004"></path></g><g id="freepik--Review--inject-21"><rect x="115" y="76.3" width="7.57" height="1" style="fill:#FFC100"></rect><path d="M87,87.64H86A11.35,11.35,0,0,1,97.29,76.3h13.6v1H97.29A10.35,10.35,0,0,0,87,87.64Z" style="fill:#FFC100"></path><rect x="89.46" y="79.8" width="133.73" height="35.1" rx="7.83" style="fill:#FFC100"></rect><polygon points="140.35 92.06 142.07 95.54 145.92 96.1 143.13 98.81 143.79 102.65 140.35 100.84 136.91 102.65 137.57 98.81 134.78 96.1 138.63 95.54 140.35 92.06" style="fill:#fff"></polygon><polygon points="155.97 92.06 157.69 95.54 161.54 96.1 158.75 98.81 159.41 102.65 155.97 100.84 152.53 102.65 153.19 98.81 150.4 96.1 154.25 95.54 155.97 92.06" style="fill:#fff"></polygon><polygon points="171.59 92.06 173.31 95.54 177.16 96.1 174.38 98.81 175.03 102.65 171.59 100.84 168.15 102.65 168.81 98.81 166.02 96.1 169.87 95.54 171.59 92.06" style="fill:#fff"></polygon><polygon points="187.21 92.06 188.93 95.54 192.78 96.1 190 98.81 190.65 102.65 187.21 100.84 183.77 102.65 184.43 98.81 181.64 96.1 185.49 95.54 187.21 92.06" style="fill:#fff"></polygon><path d="M202.83,94.32l.82,1.67a1,1,0,0,0,.76.54l1.84.27-1.33,1.3a1,1,0,0,0-.29.88l.31,1.84L203.3,100a1.12,1.12,0,0,0-.47-.11,1,1,0,0,0-.46.11l-1.65.87L201,99a1,1,0,0,0-.29-.88l-1.33-1.3,1.84-.27A1,1,0,0,0,202,96l.82-1.67m0-2.26-1.72,3.48-3.85.56,2.79,2.72-.66,3.83,3.44-1.81,3.44,1.81-.66-3.83,2.79-2.72-3.85-.56-1.72-3.48Z" style="fill:#fff;opacity:0.30000000000000004"></path><circle cx="113.85" cy="97.35" r="12.01" style="fill:#fff;opacity:0.2"></circle><path d="M123.77,97.35a9.91,9.91,0,0,1-18.63,4.72,9.76,9.76,0,0,1-1.2-4.72,9.92,9.92,0,0,1,19.83,0Z" style="fill:#fff"></path><path d="M122.57,102.07a9.9,9.9,0,0,1-17.43,0,15.7,15.7,0,0,1,17.43,0Z" style="fill:#263238"></path><path d="M118.27,94a4.42,4.42,0,1,1-4.42-4.42A4.42,4.42,0,0,1,118.27,94Z" style="fill:#ffc3bd"></path><rect x="187.21" y="201.78" width="20.01" height="1" style="fill:#FFC100"></rect><rect x="89.46" y="164.18" width="133.73" height="35.1" rx="7.83" style="fill:#FFC100"></rect><polygon points="140.35 176.43 142.07 179.92 145.92 180.47 143.13 183.19 143.79 187.02 140.35 185.21 136.91 187.02 137.57 183.19 134.78 180.47 138.63 179.92 140.35 176.43" style="fill:#fff"></polygon><polygon points="155.97 176.43 157.69 179.92 161.54 180.47 158.75 183.19 159.41 187.02 155.97 185.21 152.53 187.02 153.19 183.19 150.4 180.47 154.25 179.92 155.97 176.43" style="fill:#fff"></polygon><polygon points="171.59 176.43 173.31 179.92 177.16 180.47 174.38 183.19 175.03 187.02 171.59 185.21 168.15 187.02 168.81 183.19 166.02 180.47 169.87 179.92 171.59 176.43" style="fill:#fff"></polygon><polygon points="187.21 176.43 188.93 179.92 192.78 180.47 190 183.19 190.65 187.02 187.21 185.21 183.77 187.02 184.43 183.19 181.64 180.47 185.49 179.92 187.21 176.43" style="fill:#fff"></polygon><polygon points="202.83 176.43 204.55 179.92 208.4 180.47 205.62 183.19 206.27 187.02 202.83 185.21 199.39 187.02 200.05 183.19 197.26 180.47 201.11 179.92 202.83 176.43" style="fill:#fff"></polygon><circle cx="113.85" cy="181.73" r="12.01" transform="translate(-95.15 133.73) rotate(-45)" style="fill:#fff;opacity:0.2"></circle><path d="M123.77,181.72a9.91,9.91,0,0,1-18.63,4.73,9.8,9.8,0,0,1-1.2-4.73,9.92,9.92,0,0,1,19.83,0Z" style="fill:#fff"></path><path d="M122.57,186.45a9.91,9.91,0,0,1-17.43,0,15.7,15.7,0,0,1,17.43,0Z" style="fill:#FFC100;opacity:0.5"></path><path d="M118.27,178.33a4.42,4.42,0,1,1-4.42-4.41A4.42,4.42,0,0,1,118.27,178.33Z" style="fill:#ffb573"></path><rect x="89.46" y="121.99" width="133.73" height="35.1" rx="7.83" style="fill:#FFC100"></rect><polygon points="219.56 142.54 211.16 157.09 232.16 157.09 219.56 142.54" style="fill:#FFC100"></polygon><polygon points="140.35 134.24 142.07 137.73 145.92 138.29 143.13 141 143.79 144.83 140.35 143.02 136.91 144.83 137.57 141 134.78 138.29 138.63 137.73 140.35 134.24" style="fill:#fff"></polygon><polygon points="155.97 134.24 157.69 137.73 161.54 138.29 158.75 141 159.41 144.83 155.97 143.02 152.53 144.83 153.19 141 150.4 138.29 154.25 137.73 155.97 134.24" style="fill:#fff"></polygon><path d="M171.59,136.5l.82,1.67a1,1,0,0,0,.76.55L175,139l-1.33,1.3a1,1,0,0,0-.29.88l.31,1.84-1.64-.87a1,1,0,0,0-.47-.12.93.93,0,0,0-.46.12l-1.65.87.31-1.84a1,1,0,0,0-.29-.88l-1.33-1.3,1.84-.27a1,1,0,0,0,.76-.55l.82-1.67m0-2.26-1.72,3.49-3.85.56,2.79,2.71-.66,3.83,3.44-1.81,3.44,1.81-.66-3.83,2.79-2.71-3.85-.56-1.72-3.49Z" style="fill:#fff;opacity:0.30000000000000004"></path><path d="M187.21,136.5l.82,1.67a1,1,0,0,0,.76.55l1.84.27-1.33,1.3a1,1,0,0,0-.29.88l.31,1.84-1.64-.87a1,1,0,0,0-.47-.12.93.93,0,0,0-.46.12l-1.65.87.31-1.84a1,1,0,0,0-.29-.88l-1.33-1.3,1.84-.27a1,1,0,0,0,.76-.55l.82-1.67m0-2.26-1.72,3.49-3.85.56,2.79,2.71-.66,3.83,3.44-1.81,3.44,1.81L190,141l2.79-2.71-3.85-.56-1.72-3.49Z" style="fill:#fff;opacity:0.30000000000000004"></path><path d="M202.83,136.5l.82,1.67a1,1,0,0,0,.76.55l1.84.27-1.33,1.3a1,1,0,0,0-.29.88l.31,1.84-1.64-.87a1,1,0,0,0-.47-.12.93.93,0,0,0-.46.12l-1.65.87.31-1.84a1,1,0,0,0-.29-.88l-1.33-1.3,1.84-.27a1,1,0,0,0,.76-.55l.82-1.67m0-2.26-1.72,3.49-3.85.56,2.79,2.71-.66,3.83,3.44-1.81,3.44,1.81-.66-3.83,2.79-2.71-3.85-.56-1.72-3.49Z" style="fill:#fff;opacity:0.30000000000000004"></path><circle cx="113.85" cy="139.54" r="12.01" style="fill:#fff;opacity:0.2"></circle><path d="M123.77,139.54a9.91,9.91,0,0,1-18.63,4.72,9.76,9.76,0,0,1-1.2-4.72,9.92,9.92,0,1,1,19.83,0Z" style="fill:#fff"></path><path d="M122.57,144.26a9.91,9.91,0,0,1-17.43,0,15.7,15.7,0,0,1,17.43,0Z" style="fill:#FFC100"></path><path d="M118.27,136.15a4.42,4.42,0,1,1-4.42-4.42A4.41,4.41,0,0,1,118.27,136.15Z" style="fill:#b55b52"></path></g></svg>